# MagicaVoxel @ Ephtracy

# group
g tree02

# material
mtllib tree02.mtl
usemtl palette

# normals
vn -1 0 0
vn 1 0 0
vn 0 0 1
vn 0 0 -1
vn 0 -1 0
vn 0 1 0

# texcoords
vt 0.0332031 0.5
vt 0.369141 0.5
vt 0.462891 0.5

# verts
v -9 16 5
v -9 16 -1
v -9 18 5
v -9 18 -1
v -8 18 4
v -8 18 -0
v -8 20 4
v -8 20 -0
v -7 13 3
v -7 13 1
v -7 16 3
v -7 16 1
v -6 21 7
v -6 21 -3
v -6 24 7
v -6 24 -3
v -5 24 6
v -5 24 -2
v -5 29 6
v -5 29 -2
v -4 29 5
v -4 29 -1
v -4 31 5
v -4 31 -1
v -3 31 4
v -3 31 -0
v -3 34 4
v -3 34 -0
v -2 0 3
v -2 0 1
v -2 1 3
v -2 1 2
v -2 2 2
v -2 2 1
v -2 34 3
v -2 34 1
v -2 35 3
v -2 35 1
v -1 0 4
v -1 0 3
v -1 0 1
v -1 0 -0
v -1 1 3
v -1 1 2
v -1 2 2
v -1 2 1
v -1 3 4
v -1 3 3
v -1 3 1
v -1 3 -0
v -1 4 3
v -1 4 1
v -1 6 3
v -1 6 1
v -1 7 3
v -1 7 1
v -1 10 3
v -1 10 1
v -1 11 3
v -1 11 1
v -1 13 3
v -1 13 1
v -1 14 3
v -1 14 1
v -1 15 3
v -1 15 1
v -1 16 3
v -1 16 1
v -1 21 3
v -1 21 1
v 1 1 1
v 1 1 -0
v 1 2 1
v 1 2 -0
v 6 24 5
v 6 24 -1
v 6 25 5
v 6 25 4
v 6 25 -0
v 6 25 -1
v 6 26 4
v 6 26 -0
v 7 18 3
v 7 18 1
v 7 22 3
v 7 22 1
v -5 14 3
v -5 14 1
v -5 16 3
v -5 16 1
v -4 18 4
v -4 18 -0
v -4 20 4
v -4 20 -0
v -3 16 5
v -3 16 -1
v -3 18 5
v -3 18 -1
v 0 1 1
v 0 1 -0
v 0 2 4
v 0 2 3
v 0 3 4
v 0 3 3
v 0 3 1
v 0 3 -0
v 1 1 4
v 1 1 3
v 1 1 2
v 1 1 1
v 1 2 4
v 1 2 3
v 1 2 1
v 1 3 3
v 1 3 2
v 1 3 1
v 1 4 3
v 1 4 1
v 1 6 3
v 1 6 1
v 1 7 3
v 1 7 1
v 1 10 3
v 1 10 1
v 1 11 3
v 1 11 1
v 1 15 3
v 1 15 1
v 1 16 3
v 1 16 1
v 1 17 3
v 1 17 1
v 1 18 3
v 1 18 1
v 1 21 3
v 1 21 1
v 2 0 4
v 2 0 -0
v 2 1 4
v 2 1 3
v 2 1 2
v 2 1 1
v 2 2 1
v 2 2 -0
v 2 3 3
v 2 3 2
v 2 34 3
v 2 34 1
v 2 35 3
v 2 35 1
v 3 31 4
v 3 31 -0
v 3 34 4
v 3 34 -0
v 4 29 5
v 4 29 -1
v 4 31 5
v 4 31 -1
v 5 24 6
v 5 24 -2
v 5 29 6
v 5 29 -2
v 6 21 7
v 6 21 -3
v 6 22 4
v 6 22 -0
v 6 23 5
v 6 23 4
v 6 23 -0
v 6 23 -1
v 6 24 7
v 6 24 5
v 6 24 -1
v 6 24 -3
v 8 17 3
v 8 17 1
v 8 22 3
v 8 22 1
v 9 22 4
v 9 22 -0
v 9 23 4
v 9 23 -0
v 9 25 4
v 9 25 -0
v 9 26 4
v 9 26 -0
v 10 23 5
v 10 23 -1
v 10 25 5
v 10 25 -1
v -6 21 7
v -6 24 7
v 6 21 7
v 6 24 7
v -5 24 6
v -5 29 6
v 5 24 6
v 5 29 6
v -9 16 5
v -9 18 5
v -4 29 5
v -4 31 5
v -3 16 5
v -3 18 5
v 4 29 5
v 4 31 5
v 6 23 5
v 6 24 5
v 6 25 5
v 10 23 5
v 10 25 5
v -8 18 4
v -8 20 4
v -4 18 4
v -4 20 4
v -3 31 4
v -3 34 4
v -1 0 4
v -1 3 4
v 0 2 4
v 0 3 4
v 1 1 4
v 1 2 4
v 2 0 4
v 2 1 4
v 3 31 4
v 3 34 4
v 6 22 4
v 6 23 4
v 6 25 4
v 6 26 4
v 9 22 4
v 9 23 4
v 9 25 4
v 9 26 4
v -7 13 3
v -7 16 3
v -5 14 3
v -5 16 3
v -2 0 3
v -2 1 3
v -2 34 3
v -2 35 3
v -1 0 3
v -1 1 3
v -1 3 3
v -1 4 3
v -1 6 3
v -1 7 3
v -1 10 3
v -1 11 3
v -1 13 3
v -1 14 3
v -1 15 3
v -1 16 3
v -1 21 3
v 0 2 3
v 0 3 3
v 1 1 3
v 1 2 3
v 1 3 3
v 1 4 3
v 1 6 3
v 1 7 3
v 1 10 3
v 1 11 3
v 1 15 3
v 1 16 3
v 1 17 3
v 1 18 3
v 1 21 3
v 2 1 3
v 2 3 3
v 2 34 3
v 2 35 3
v 7 18 3
v 7 22 3
v 8 17 3
v 8 22 3
v -2 1 2
v -2 2 2
v -1 1 2
v -1 2 2
v 1 1 1
v 1 2 1
v 2 1 1
v 2 2 1
v 1 1 2
v 1 3 2
v 2 1 2
v 2 3 2
v -7 13 1
v -7 16 1
v -5 14 1
v -5 16 1
v -2 0 1
v -2 2 1
v -2 34 1
v -2 35 1
v -1 0 1
v -1 2 1
v -1 3 1
v -1 4 1
v -1 6 1
v -1 7 1
v -1 10 1
v -1 11 1
v -1 13 1
v -1 14 1
v -1 15 1
v -1 16 1
v -1 21 1
v 0 1 1
v 0 3 1
v 1 1 1
v 1 2 1
v 1 3 1
v 1 4 1
v 1 6 1
v 1 7 1
v 1 10 1
v 1 11 1
v 1 15 1
v 1 16 1
v 1 17 1
v 1 18 1
v 1 21 1
v 2 34 1
v 2 35 1
v 7 18 1
v 7 22 1
v 8 17 1
v 8 22 1
v -8 18 -0
v -8 20 -0
v -4 18 -0
v -4 20 -0
v -3 31 -0
v -3 34 -0
v -1 0 -0
v -1 3 -0
v 0 1 -0
v 0 3 -0
v 1 1 -0
v 1 2 -0
v 2 0 -0
v 2 2 -0
v 3 31 -0
v 3 34 -0
v 6 22 -0
v 6 23 -0
v 6 25 -0
v 6 26 -0
v 9 22 -0
v 9 23 -0
v 9 25 -0
v 9 26 -0
v -9 16 -1
v -9 18 -1
v -4 29 -1
v -4 31 -1
v -3 16 -1
v -3 18 -1
v 4 29 -1
v 4 31 -1
v 6 23 -1
v 6 24 -1
v 6 25 -1
v 10 23 -1
v 10 25 -1
v -5 24 -2
v -5 29 -2
v 5 24 -2
v 5 29 -2
v -6 21 -3
v -6 24 -3
v 6 21 -3
v 6 24 -3
v -1 0 4
v 2 0 4
v -2 0 3
v -1 0 3
v -2 0 1
v -1 0 1
v -1 0 -0
v 2 0 -0
v -7 13 3
v -1 13 3
v -7 13 1
v -1 13 1
v -9 16 5
v -3 16 5
v -7 16 3
v -5 16 3
v -7 16 1
v -5 16 1
v -9 16 -1
v -3 16 -1
v 1 17 3
v 8 17 3
v 1 17 1
v 8 17 1
v -6 21 7
v 6 21 7
v -1 21 3
v 1 21 3
v -1 21 1
v 1 21 1
v -6 21 -3
v 6 21 -3
v 6 22 4
v 9 22 4
v 7 22 3
v 8 22 3
v 7 22 1
v 8 22 1
v 6 22 -0
v 9 22 -0
v 6 23 5
v 10 23 5
v 6 23 4
v 9 23 4
v 6 23 -0
v 9 23 -0
v 6 23 -1
v 10 23 -1
v 1 1 4
v 2 1 4
v -2 1 3
v -1 1 3
v 1 1 3
v 2 1 3
v -2 1 2
v -1 1 2
v 1 1 2
v 2 1 2
v 0 1 1
v 1 1 1
v 2 1 1
v 0 1 -0
v 1 1 -0
v 0 2 4
v 1 2 4
v 0 2 3
v 1 2 3
v -2 2 2
v -1 2 2
v -2 2 1
v -1 2 1
v 1 2 1
v 2 2 1
v 1 2 -0
v 2 2 -0
v -1 3 4
v 0 3 4
v -1 3 3
v 0 3 3
v 1 3 3
v 2 3 3
v 1 3 2
v 2 3 2
v -1 3 1
v 0 3 1
v -1 3 -0
v 0 3 -0
v -5 14 3
v -1 14 3
v -5 14 1
v -1 14 1
v -9 18 5
v -3 18 5
v -8 18 4
v -4 18 4
v 1 18 3
v 7 18 3
v 1 18 1
v 7 18 1
v -8 18 -0
v -4 18 -0
v -9 18 -1
v -3 18 -1
v -8 20 4
v -4 20 4
v -8 20 -0
v -4 20 -0
v -6 24 7
v 6 24 7
v -5 24 6
v 5 24 6
v 6 24 5
v 6 24 -1
v -5 24 -2
v 5 24 -2
v -6 24 -3
v 6 24 -3
v 6 25 5
v 10 25 5
v 6 25 4
v 9 25 4
v 6 25 -0
v 9 25 -0
v 6 25 -1
v 10 25 -1
v 6 26 4
v 9 26 4
v 6 26 -0
v 9 26 -0
v -5 29 6
v 5 29 6
v -4 29 5
v 4 29 5
v -4 29 -1
v 4 29 -1
v -5 29 -2
v 5 29 -2
v -4 31 5
v 4 31 5
v -3 31 4
v 3 31 4
v -3 31 -0
v 3 31 -0
v -4 31 -1
v 4 31 -1
v -3 34 4
v 3 34 4
v -2 34 3
v 2 34 3
v -2 34 1
v 2 34 1
v -3 34 -0
v 3 34 -0
v -2 35 3
v 2 35 3
v -2 35 1
v 2 35 1

# faces
f 3/3/1 2/3/1 1/3/1
f 4/3/1 2/3/1 3/3/1
f 7/3/1 6/3/1 5/3/1
f 8/3/1 6/3/1 7/3/1
f 11/1/1 10/1/1 9/1/1
f 12/1/1 10/1/1 11/1/1
f 15/3/1 14/3/1 13/3/1
f 16/3/1 14/3/1 15/3/1
f 19/3/1 18/3/1 17/3/1
f 20/3/1 18/3/1 19/3/1
f 23/3/1 22/3/1 21/3/1
f 24/3/1 22/3/1 23/3/1
f 27/3/1 26/3/1 25/3/1
f 28/3/1 26/3/1 27/3/1
f 31/1/1 30/1/1 29/1/1
f 32/1/1 30/1/1 31/1/1
f 33/1/1 30/1/1 32/1/1
f 34/1/1 30/1/1 33/1/1
f 37/3/1 36/3/1 35/3/1
f 38/3/1 36/3/1 37/3/1
f 43/1/1 40/1/1 39/1/1
f 45/1/1 44/1/1 43/1/1
f 46/1/1 42/1/1 41/1/1
f 47/1/1 45/1/1 43/1/1
f 47/1/1 46/1/1 45/1/1
f 47/1/1 43/1/1 39/1/1
f 48/1/1 46/1/1 47/1/1
f 49/1/1 42/1/1 46/1/1
f 49/1/1 46/1/1 48/1/1
f 50/1/1 42/1/1 49/1/1
f 51/2/1 49/2/1 48/2/1
f 52/2/1 49/2/1 51/2/1
f 53/1/1 52/1/1 51/1/1
f 54/1/1 52/1/1 53/1/1
f 55/2/1 54/2/1 53/2/1
f 56/2/1 54/2/1 55/2/1
f 57/1/1 56/1/1 55/1/1
f 58/1/1 56/1/1 57/1/1
f 59/2/1 58/2/1 57/2/1
f 60/2/1 58/2/1 59/2/1
f 61/1/1 60/1/1 59/1/1
f 62/1/1 60/1/1 61/1/1
f 65/1/1 64/1/1 63/1/1
f 66/1/1 64/1/1 65/1/1
f 67/2/1 66/2/1 65/2/1
f 68/2/1 66/2/1 67/2/1
f 69/1/1 68/1/1 67/1/1
f 70/1/1 68/1/1 69/1/1
f 73/1/1 72/1/1 71/1/1
f 74/1/1 72/1/1 73/1/1
f 77/3/1 76/3/1 75/3/1
f 78/3/1 76/3/1 77/3/1
f 79/3/1 76/3/1 78/3/1
f 80/3/1 76/3/1 79/3/1
f 81/3/1 79/3/1 78/3/1
f 82/3/1 79/3/1 81/3/1
f 85/1/1 84/1/1 83/1/1
f 86/1/1 84/1/1 85/1/1
f 87/1/2 88/1/2 89/1/2
f 89/1/2 88/1/2 90/1/2
f 91/3/2 92/3/2 93/3/2
f 93/3/2 92/3/2 94/3/2
f 95/3/2 96/3/2 97/3/2
f 97/3/2 96/3/2 98/3/2
f 101/1/2 102/1/2 103/1/2
f 103/1/2 102/1/2 104/1/2
f 99/1/2 100/1/2 105/1/2
f 105/1/2 100/1/2 106/1/2
f 107/1/2 108/1/2 111/1/2
f 111/1/2 108/1/2 112/1/2
f 109/1/2 110/1/2 113/1/2
f 109/1/2 113/1/2 115/1/2
f 115/1/2 113/1/2 116/1/2
f 114/2/2 115/2/2 117/2/2
f 115/2/2 116/2/2 117/2/2
f 117/2/2 116/2/2 118/2/2
f 117/1/2 118/1/2 119/1/2
f 119/1/2 118/1/2 120/1/2
f 119/2/2 120/2/2 121/2/2
f 121/2/2 120/2/2 122/2/2
f 121/1/2 122/1/2 123/1/2
f 123/1/2 122/1/2 124/1/2
f 123/2/2 124/2/2 125/2/2
f 125/2/2 124/2/2 126/2/2
f 125/1/2 126/1/2 127/1/2
f 127/1/2 126/1/2 128/1/2
f 127/2/2 128/2/2 129/2/2
f 129/2/2 128/2/2 130/2/2
f 129/1/2 130/1/2 131/1/2
f 131/1/2 130/1/2 132/1/2
f 133/1/2 134/1/2 135/1/2
f 135/1/2 134/1/2 136/1/2
f 137/1/2 138/1/2 139/1/2
f 139/1/2 138/1/2 140/1/2
f 140/1/2 138/1/2 141/1/2
f 141/1/2 138/1/2 142/1/2
f 142/1/2 138/1/2 143/1/2
f 143/1/2 138/1/2 144/1/2
f 140/1/2 141/1/2 145/1/2
f 145/1/2 141/1/2 146/1/2
f 147/3/2 148/3/2 149/3/2
f 149/3/2 148/3/2 150/3/2
f 151/3/2 152/3/2 153/3/2
f 153/3/2 152/3/2 154/3/2
f 155/3/2 156/3/2 157/3/2
f 157/3/2 156/3/2 158/3/2
f 159/3/2 160/3/2 161/3/2
f 161/3/2 160/3/2 162/3/2
f 163/3/2 164/3/2 165/3/2
f 165/3/2 164/3/2 166/3/2
f 163/3/2 165/3/2 167/3/2
f 167/3/2 165/3/2 168/3/2
f 166/3/2 164/3/2 169/3/2
f 169/3/2 164/3/2 170/3/2
f 163/3/2 167/3/2 171/3/2
f 171/3/2 167/3/2 172/3/2
f 170/3/2 164/3/2 173/3/2
f 173/3/2 164/3/2 174/3/2
f 175/1/2 176/1/2 177/1/2
f 177/1/2 176/1/2 178/1/2
f 179/3/2 180/3/2 181/3/2
f 181/3/2 180/3/2 182/3/2
f 183/3/2 184/3/2 185/3/2
f 185/3/2 184/3/2 186/3/2
f 187/3/2 188/3/2 189/3/2
f 189/3/2 188/3/2 190/3/2
f 193/3/3 192/3/3 191/3/3
f 194/3/3 192/3/3 193/3/3
f 197/3/3 196/3/3 195/3/3
f 198/3/3 196/3/3 197/3/3
f 203/3/3 200/3/3 199/3/3
f 204/3/3 200/3/3 203/3/3
f 205/3/3 202/3/3 201/3/3
f 206/3/3 202/3/3 205/3/3
f 210/3/3 208/3/3 207/3/3
f 210/3/3 209/3/3 208/3/3
f 211/3/3 209/3/3 210/3/3
f 214/3/3 213/3/3 212/3/3
f 215/3/3 213/3/3 214/3/3
f 220/1/3 219/1/3 218/1/3
f 221/1/3 219/1/3 220/1/3
f 222/1/3 220/1/3 218/1/3
f 223/1/3 220/1/3 222/1/3
f 224/1/3 222/1/3 218/1/3
f 225/1/3 222/1/3 224/1/3
f 226/3/3 217/3/3 216/3/3
f 227/3/3 217/3/3 226/3/3
f 232/3/3 229/3/3 228/3/3
f 233/3/3 229/3/3 232/3/3
f 234/3/3 231/3/3 230/3/3
f 235/3/3 231/3/3 234/3/3
f 238/1/3 237/1/3 236/1/3
f 239/1/3 237/1/3 238/1/3
f 244/1/3 241/1/3 240/1/3
f 245/1/3 241/1/3 244/1/3
f 252/1/3 238/1/3 236/1/3
f 253/1/3 238/1/3 252/1/3
f 258/2/3 247/2/3 246/2/3
f 260/1/3 258/1/3 257/1/3
f 261/2/3 247/2/3 258/2/3
f 261/1/3 258/1/3 260/1/3
f 262/1/3 248/1/3 247/1/3
f 262/2/3 247/2/3 261/2/3
f 263/2/3 249/2/3 248/2/3
f 263/1/3 248/1/3 262/1/3
f 264/1/3 250/1/3 249/1/3
f 264/2/3 249/2/3 263/2/3
f 265/2/3 251/2/3 250/2/3
f 265/1/3 250/1/3 264/1/3
f 266/1/3 252/1/3 251/1/3
f 266/2/3 251/2/3 265/2/3
f 266/1/3 253/1/3 252/1/3
f 266/1/3 254/1/3 253/1/3
f 267/2/3 255/2/3 254/2/3
f 267/1/3 254/1/3 266/1/3
f 268/1/3 256/1/3 255/1/3
f 268/2/3 255/2/3 267/2/3
f 269/1/3 256/1/3 268/1/3
f 270/1/3 256/1/3 269/1/3
f 271/1/3 256/1/3 270/1/3
f 272/1/3 261/1/3 260/1/3
f 272/1/3 260/1/3 259/1/3
f 273/1/3 261/1/3 272/1/3
f 274/3/3 243/3/3 242/3/3
f 275/3/3 243/3/3 274/3/3
f 276/1/3 270/1/3 269/1/3
f 278/1/3 276/1/3 269/1/3
f 278/1/3 277/1/3 276/1/3
f 279/1/3 277/1/3 278/1/3
f 282/1/3 281/1/3 280/1/3
f 283/1/3 281/1/3 282/1/3
f 286/1/3 285/1/3 284/1/3
f 287/1/3 285/1/3 286/1/3
f 288/1/4 289/1/4 290/1/4
f 290/1/4 289/1/4 291/1/4
f 292/1/4 293/1/4 294/1/4
f 294/1/4 293/1/4 295/1/4
f 296/1/4 297/1/4 300/1/4
f 300/1/4 297/1/4 301/1/4
f 292/1/4 294/1/4 308/1/4
f 308/1/4 294/1/4 309/1/4
f 302/2/4 303/2/4 314/2/4
f 313/1/4 314/1/4 315/1/4
f 315/1/4 314/1/4 316/1/4
f 314/2/4 303/2/4 317/2/4
f 316/1/4 314/1/4 317/1/4
f 303/1/4 304/1/4 318/1/4
f 317/2/4 303/2/4 318/2/4
f 304/2/4 305/2/4 319/2/4
f 318/1/4 304/1/4 319/1/4
f 305/1/4 306/1/4 320/1/4
f 319/2/4 305/2/4 320/2/4
f 306/2/4 307/2/4 321/2/4
f 320/1/4 306/1/4 321/1/4
f 307/1/4 308/1/4 322/1/4
f 321/2/4 307/2/4 322/2/4
f 308/1/4 309/1/4 322/1/4
f 309/1/4 310/1/4 322/1/4
f 310/2/4 311/2/4 323/2/4
f 322/1/4 310/1/4 323/1/4
f 311/1/4 312/1/4 324/1/4
f 323/2/4 311/2/4 324/2/4
f 324/1/4 312/1/4 325/1/4
f 325/1/4 312/1/4 326/1/4
f 326/1/4 312/1/4 327/1/4
f 298/3/4 299/3/4 328/3/4
f 328/3/4 299/3/4 329/3/4
f 325/1/4 326/1/4 330/1/4
f 325/1/4 330/1/4 332/1/4
f 330/1/4 331/1/4 332/1/4
f 332/1/4 331/1/4 333/1/4
f 334/3/4 335/3/4 336/3/4
f 336/3/4 335/3/4 337/3/4
f 340/1/4 341/1/4 342/1/4
f 342/1/4 341/1/4 343/1/4
f 340/1/4 342/1/4 344/1/4
f 340/1/4 344/1/4 346/1/4
f 344/1/4 345/1/4 346/1/4
f 346/1/4 345/1/4 347/1/4
f 338/3/4 339/3/4 348/3/4
f 348/3/4 339/3/4 349/3/4
f 350/3/4 351/3/4 354/3/4
f 354/3/4 351/3/4 355/3/4
f 352/3/4 353/3/4 356/3/4
f 356/3/4 353/3/4 357/3/4
f 358/3/4 359/3/4 362/3/4
f 362/3/4 359/3/4 363/3/4
f 360/3/4 361/3/4 364/3/4
f 364/3/4 361/3/4 365/3/4
f 366/3/4 367/3/4 369/3/4
f 367/3/4 368/3/4 369/3/4
f 369/3/4 368/3/4 370/3/4
f 371/3/4 372/3/4 373/3/4
f 373/3/4 372/3/4 374/3/4
f 375/3/4 376/3/4 377/3/4
f 377/3/4 376/3/4 378/3/4
f 382/1/5 380/1/5 379/1/5
f 383/1/5 382/1/5 381/1/5
f 384/1/5 380/1/5 382/1/5
f 384/1/5 382/1/5 383/1/5
f 385/1/5 380/1/5 384/1/5
f 386/1/5 380/1/5 385/1/5
f 389/1/5 388/1/5 387/1/5
f 390/1/5 388/1/5 389/1/5
f 393/3/5 392/3/5 391/3/5
f 394/3/5 392/3/5 393/3/5
f 395/3/5 393/3/5 391/3/5
f 396/3/5 392/3/5 394/3/5
f 397/3/5 395/3/5 391/3/5
f 397/3/5 396/3/5 395/3/5
f 398/3/5 392/3/5 396/3/5
f 398/3/5 396/3/5 397/3/5
f 401/1/5 400/1/5 399/1/5
f 402/1/5 400/1/5 401/1/5
f 405/3/5 404/3/5 403/3/5
f 406/3/5 404/3/5 405/3/5
f 407/3/5 405/3/5 403/3/5
f 408/3/5 404/3/5 406/3/5
f 409/3/5 407/3/5 403/3/5
f 409/3/5 408/3/5 407/3/5
f 410/3/5 404/3/5 408/3/5
f 410/3/5 408/3/5 409/3/5
f 413/3/5 412/3/5 411/3/5
f 414/3/5 412/3/5 413/3/5
f 415/3/5 413/3/5 411/3/5
f 416/3/5 412/3/5 414/3/5
f 417/3/5 415/3/5 411/3/5
f 417/3/5 416/3/5 415/3/5
f 418/3/5 412/3/5 416/3/5
f 418/3/5 416/3/5 417/3/5
f 421/3/5 420/3/5 419/3/5
f 422/3/5 420/3/5 421/3/5
f 424/3/5 420/3/5 422/3/5
f 425/3/5 424/3/5 423/3/5
f 426/3/5 420/3/5 424/3/5
f 426/3/5 424/3/5 425/3/5
f 427/1/6 428/1/6 431/1/6
f 431/1/6 428/1/6 432/1/6
f 429/1/6 430/1/6 433/1/6
f 433/1/6 430/1/6 434/1/6
f 435/1/6 436/1/6 438/1/6
f 438/1/6 436/1/6 439/1/6
f 437/1/6 438/1/6 440/1/6
f 440/1/6 438/1/6 441/1/6
f 442/1/6 443/1/6 444/1/6
f 444/1/6 443/1/6 445/1/6
f 446/1/6 447/1/6 448/1/6
f 448/1/6 447/1/6 449/1/6
f 450/1/6 451/1/6 452/1/6
f 452/1/6 451/1/6 453/1/6
f 454/1/6 455/1/6 456/1/6
f 456/1/6 455/1/6 457/1/6
f 458/1/6 459/1/6 460/1/6
f 460/1/6 459/1/6 461/1/6
f 462/1/6 463/1/6 464/1/6
f 464/1/6 463/1/6 465/1/6
f 466/1/6 467/1/6 468/1/6
f 468/1/6 467/1/6 469/1/6
f 470/3/6 471/3/6 472/3/6
f 472/3/6 471/3/6 473/3/6
f 474/1/6 475/1/6 476/1/6
f 476/1/6 475/1/6 477/1/6
f 470/3/6 472/3/6 478/3/6
f 473/3/6 471/3/6 479/3/6
f 470/3/6 478/3/6 480/3/6
f 478/3/6 479/3/6 480/3/6
f 479/3/6 471/3/6 481/3/6
f 480/3/6 479/3/6 481/3/6
f 482/3/6 483/3/6 484/3/6
f 484/3/6 483/3/6 485/3/6
f 486/3/6 487/3/6 488/3/6
f 488/3/6 487/3/6 489/3/6
f 489/3/6 487/3/6 490/3/6
f 489/3/6 490/3/6 491/3/6
f 486/3/6 488/3/6 492/3/6
f 489/3/6 491/3/6 493/3/6
f 486/3/6 492/3/6 494/3/6
f 492/3/6 493/3/6 494/3/6
f 493/3/6 491/3/6 495/3/6
f 494/3/6 493/3/6 495/3/6
f 496/3/6 497/3/6 498/3/6
f 498/3/6 497/3/6 499/3/6
f 499/3/6 497/3/6 501/3/6
f 500/3/6 501/3/6 502/3/6
f 501/3/6 497/3/6 503/3/6
f 502/3/6 501/3/6 503/3/6
f 504/3/6 505/3/6 506/3/6
f 506/3/6 505/3/6 507/3/6
f 508/3/6 509/3/6 510/3/6
f 510/3/6 509/3/6 511/3/6
f 508/3/6 510/3/6 512/3/6
f 511/3/6 509/3/6 513/3/6
f 508/3/6 512/3/6 514/3/6
f 512/3/6 513/3/6 514/3/6
f 513/3/6 509/3/6 515/3/6
f 514/3/6 513/3/6 515/3/6
f 516/3/6 517/3/6 518/3/6
f 518/3/6 517/3/6 519/3/6
f 516/3/6 518/3/6 520/3/6
f 519/3/6 517/3/6 521/3/6
f 516/3/6 520/3/6 522/3/6
f 520/3/6 521/3/6 522/3/6
f 521/3/6 517/3/6 523/3/6
f 522/3/6 521/3/6 523/3/6
f 524/3/6 525/3/6 526/3/6
f 526/3/6 525/3/6 527/3/6
f 524/3/6 526/3/6 528/3/6
f 527/3/6 525/3/6 529/3/6
f 524/3/6 528/3/6 530/3/6
f 528/3/6 529/3/6 530/3/6
f 529/3/6 525/3/6 531/3/6
f 530/3/6 529/3/6 531/3/6
f 532/3/6 533/3/6 534/3/6
f 534/3/6 533/3/6 535/3/6
