# MagicaVoxel @ Ephtracy

# material
mtllib wall tile 01.mtl
usemtl palette

# normals
vn -1 0 0
vn 1 0 0
vn 0 0 1
vn 0 0 -1
vn 0 -1 0
vn 0 1 0

# texcoords
vt 0.966797 0.5
vt 0.974609 0.5
vt 0.978516 0.5
vt 0.986328 0.5
vt 0.990234 0.5

# verts
v -20 0 -17
v -20 0 -18
v -20 0 -20
v -20 11 -17
v -20 11 -18
v -20 12 -16
v -20 12 -17
v -20 12 -18
v -20 25 -16
v -20 25 -17
v -20 26 -16
v -20 26 -17
v -20 26 -18
v -20 40 -17
v -20 40 -18
v -20 40 -20
v -17 0 -16
v -17 0 -17
v -17 9 -16
v -17 9 -17
v -17 29 -16
v -17 29 -17
v -17 40 -16
v -17 40 -17
v -5 12 -16
v -5 12 -17
v -5 26 -16
v -5 26 -17
v -12 12 -16
v -12 12 -17
v -12 25 -16
v -12 25 -17
v -12 26 -16
v -12 26 -17
v 17 0 -16
v 17 0 -17
v 17 9 -16
v 17 9 -17
v 17 29 -16
v 17 29 -17
v 17 40 -16
v 17 40 -17
v 20 0 -17
v 20 0 -18
v 20 0 -20
v 20 11 -17
v 20 11 -18
v 20 12 -16
v 20 12 -17
v 20 12 -18
v 20 25 -16
v 20 25 -17
v 20 26 -16
v 20 26 -17
v 20 26 -18
v 20 40 -17
v 20 40 -18
v 20 40 -20
v -20 12 -16
v -20 25 -16
v -20 26 -16
v -17 0 -16
v -17 9 -16
v -17 29 -16
v -17 40 -16
v -16 0 -16
v -16 9 -16
v -16 29 -16
v -16 40 -16
v -12 12 -16
v -12 25 -16
v -12 26 -16
v -5 12 -16
v -5 26 -16
v -4 12 -16
v -4 25 -16
v 17 0 -16
v 17 9 -16
v 17 29 -16
v 17 40 -16
v 20 12 -16
v 20 25 -16
v 20 26 -16
v -20 0 -17
v -20 11 -17
v -20 12 -17
v -20 26 -17
v -20 40 -17
v -17 0 -17
v -17 9 -17
v -17 28 -17
v -17 29 -17
v -17 40 -17
v -16 9 -17
v -16 29 -17
v -12 11 -17
v -12 12 -17
v -12 25 -17
v -12 26 -17
v -5 11 -17
v -5 12 -17
v -5 26 -17
v -4 12 -17
v 17 0 -17
v 17 9 -17
v 17 28 -17
v 17 29 -17
v 17 40 -17
v 20 0 -17
v 20 11 -17
v 20 12 -17
v 20 26 -17
v 20 40 -17
v -20 0 -20
v -20 40 -20
v 20 0 -20
v 20 40 -20
v -17 0 -16
v -16 0 -16
v 17 0 -16
v -20 0 -17
v -17 0 -17
v -16 0 -17
v 17 0 -17
v 20 0 -17
v -20 0 -18
v -17 0 -18
v 17 0 -18
v 20 0 -18
v -20 0 -20
v 20 0 -20
v -20 12 -16
v -12 12 -16
v -5 12 -16
v -4 12 -16
v 20 12 -16
v -20 12 -17
v -12 12 -17
v -5 12 -17
v -4 12 -17
v 20 12 -17
v -17 29 -16
v -16 29 -16
v 17 29 -16
v -17 29 -17
v -16 29 -17
v 17 29 -17
v -17 9 -16
v -16 9 -16
v 17 9 -16
v -17 9 -17
v -16 9 -17
v 17 9 -17
v -20 26 -16
v -12 26 -16
v -5 26 -16
v 20 26 -16
v -20 26 -17
v -12 26 -17
v -5 26 -17
v 20 26 -17
v -17 40 -16
v -16 40 -16
v 17 40 -16
v -20 40 -17
v -17 40 -17
v -16 40 -17
v 17 40 -17
v 20 40 -17
v -20 40 -18
v -17 40 -18
v 17 40 -18
v 20 40 -18
v -20 40 -20
v 20 40 -20

# faces
f 4/4/1 2/4/1 1/4/1
f 5/3/1 3/3/1 2/3/1
f 5/4/1 2/4/1 4/4/1
f 7/5/1 5/5/1 4/5/1
f 8/3/1 3/3/1 5/3/1
f 8/5/1 5/5/1 7/5/1
f 9/2/1 7/2/1 6/2/1
f 10/3/1 8/3/1 7/3/1
f 10/2/1 7/2/1 9/2/1
f 11/1/1 10/1/1 9/1/1
f 12/3/1 8/3/1 10/3/1
f 12/1/1 10/1/1 11/1/1
f 13/3/1 3/3/1 8/3/1
f 13/3/1 8/3/1 12/3/1
f 14/4/1 13/4/1 12/4/1
f 15/3/1 3/3/1 13/3/1
f 15/4/1 13/4/1 14/4/1
f 16/3/1 3/3/1 15/3/1
f 19/1/1 18/1/1 17/1/1
f 20/1/1 18/1/1 19/1/1
f 23/1/1 22/1/1 21/1/1
f 24/1/1 22/1/1 23/1/1
f 27/1/1 26/1/1 25/1/1
f 28/1/1 26/1/1 27/1/1
f 29/2/2 30/2/2 31/2/2
f 31/2/2 30/2/2 32/2/2
f 31/1/2 32/1/2 33/1/2
f 33/1/2 32/1/2 34/1/2
f 35/2/2 36/2/2 37/2/2
f 37/2/2 36/2/2 38/2/2
f 39/2/2 40/2/2 41/2/2
f 41/2/2 40/2/2 42/2/2
f 43/4/2 44/4/2 46/4/2
f 44/3/2 45/3/2 47/3/2
f 46/4/2 44/4/2 47/4/2
f 46/5/2 47/5/2 49/5/2
f 47/3/2 45/3/2 50/3/2
f 49/5/2 47/5/2 50/5/2
f 48/2/2 49/2/2 51/2/2
f 49/3/2 50/3/2 52/3/2
f 51/2/2 49/2/2 52/2/2
f 51/1/2 52/1/2 53/1/2
f 52/3/2 50/3/2 54/3/2
f 53/1/2 52/1/2 54/1/2
f 50/3/2 45/3/2 55/3/2
f 54/3/2 50/3/2 55/3/2
f 54/4/2 55/4/2 56/4/2
f 55/3/2 45/3/2 57/3/2
f 56/4/2 55/4/2 57/4/2
f 57/3/2 45/3/2 58/3/2
f 66/1/3 63/1/3 62/1/3
f 67/1/3 63/1/3 66/1/3
f 68/1/3 65/1/3 64/1/3
f 69/1/3 65/1/3 68/1/3
f 70/2/3 60/2/3 59/2/3
f 71/1/3 61/1/3 60/1/3
f 71/2/3 60/2/3 70/2/3
f 72/1/3 61/1/3 71/1/3
f 75/1/3 74/1/3 73/1/3
f 76/1/3 74/1/3 75/1/3
f 77/2/3 67/2/3 66/2/3
f 78/2/3 67/2/3 77/2/3
f 79/2/3 69/2/3 68/2/3
f 80/2/3 69/2/3 79/2/3
f 81/2/3 76/2/3 75/2/3
f 82/1/3 74/1/3 76/1/3
f 82/2/3 76/2/3 81/2/3
f 83/1/3 74/1/3 82/1/3
f 89/4/3 85/4/3 84/4/3
f 90/4/3 85/4/3 89/4/3
f 91/4/3 88/4/3 87/4/3
f 92/4/3 88/4/3 91/4/3
f 93/4/3 88/4/3 92/4/3
f 94/4/3 85/4/3 90/4/3
f 95/5/3 92/5/3 91/5/3
f 96/5/3 86/5/3 85/5/3
f 96/4/3 85/4/3 94/4/3
f 97/5/3 86/5/3 96/5/3
f 99/4/3 91/4/3 87/4/3
f 100/4/3 98/4/3 97/4/3
f 100/4/3 99/4/3 98/4/3
f 100/4/3 96/4/3 94/4/3
f 100/4/3 97/4/3 96/4/3
f 101/4/3 99/4/3 100/4/3
f 102/4/3 91/4/3 99/4/3
f 102/4/3 99/4/3 101/4/3
f 103/5/3 101/5/3 100/5/3
f 105/4/3 100/4/3 94/4/3
f 106/5/3 95/5/3 91/5/3
f 106/4/3 91/4/3 102/4/3
f 107/5/3 95/5/3 106/5/3
f 109/4/3 105/4/3 104/4/3
f 110/4/3 100/4/3 105/4/3
f 110/4/3 105/4/3 109/4/3
f 110/5/3 103/5/3 100/5/3
f 111/5/3 103/5/3 110/5/3
f 112/4/3 107/4/3 106/4/3
f 112/4/3 108/4/3 107/4/3
f 112/4/3 106/4/3 102/4/3
f 113/4/3 108/4/3 112/4/3
f 114/3/4 115/3/4 116/3/4
f 116/3/4 115/3/4 117/3/4
f 122/1/5 119/1/5 118/1/5
f 123/2/5 120/2/5 119/2/5
f 123/1/5 119/1/5 122/1/5
f 124/2/5 120/2/5 123/2/5
f 126/4/5 122/4/5 121/4/5
f 127/3/5 123/3/5 122/3/5
f 127/4/5 122/4/5 126/4/5
f 127/3/5 124/3/5 123/3/5
f 128/4/5 125/4/5 124/4/5
f 128/3/5 124/3/5 127/3/5
f 129/4/5 125/4/5 128/4/5
f 130/3/5 127/3/5 126/3/5
f 130/3/5 128/3/5 127/3/5
f 130/3/5 129/3/5 128/3/5
f 131/3/5 129/3/5 130/3/5
f 137/2/5 133/2/5 132/2/5
f 138/2/5 133/2/5 137/2/5
f 139/1/5 135/1/5 134/1/5
f 140/2/5 136/2/5 135/2/5
f 140/1/5 135/1/5 139/1/5
f 141/2/5 136/2/5 140/2/5
f 145/1/5 143/1/5 142/1/5
f 146/2/5 144/2/5 143/2/5
f 146/1/5 143/1/5 145/1/5
f 147/2/5 144/2/5 146/2/5
f 148/1/6 149/1/6 151/1/6
f 149/2/6 150/2/6 152/2/6
f 151/1/6 149/1/6 152/1/6
f 152/2/6 150/2/6 153/2/6
f 154/1/6 155/1/6 158/1/6
f 158/1/6 155/1/6 159/1/6
f 156/1/6 157/1/6 160/1/6
f 160/1/6 157/1/6 161/1/6
f 162/1/6 163/1/6 166/1/6
f 163/2/6 164/2/6 167/2/6
f 166/1/6 163/1/6 167/1/6
f 167/2/6 164/2/6 168/2/6
f 165/4/6 166/4/6 170/4/6
f 166/3/6 167/3/6 171/3/6
f 170/4/6 166/4/6 171/4/6
f 167/3/6 168/3/6 171/3/6
f 168/4/6 169/4/6 172/4/6
f 171/3/6 168/3/6 172/3/6
f 172/4/6 169/4/6 173/4/6
f 170/3/6 171/3/6 174/3/6
f 171/3/6 172/3/6 174/3/6
f 172/3/6 173/3/6 174/3/6
f 174/3/6 173/3/6 175/3/6
