# MagicaVoxel @ Ephtracy

# material
mtllib wall tile 03.mtl
usemtl palette

# normals
vn -1 0 0
vn 1 0 0
vn 0 0 1
vn 0 0 -1
vn 0 -1 0
vn 0 1 0

# texcoords
vt 0.966797 0.5
vt 0.978516 0.5
vt 0.986328 0.5
vt 0.994141 0.5

# verts
v -20 0 -17
v -20 0 -18
v -20 0 -20
v -20 11 -17
v -20 11 -18
v -20 12 -16
v -20 12 -17
v -20 12 -18
v -20 25 -16
v -20 25 -17
v -20 26 -16
v -20 26 -17
v -20 26 -18
v -20 40 -17
v -20 40 -18
v -20 40 -20
v -17 0 -16
v -17 0 -17
v -17 9 -16
v -17 9 -17
v -17 29 -16
v -17 29 -17
v -17 40 -16
v -17 40 -17
v -12 12 -16
v -12 12 -17
v -12 25 -16
v -12 25 -17
v -12 26 -16
v -12 26 -17
v 17 0 -16
v 17 0 -17
v 17 8 -16
v 17 8 -17
v 17 9 -16
v 17 9 -17
v 17 29 -16
v 17 29 -17
v 17 40 -16
v 17 40 -17
v 20 0 -17
v 20 0 -18
v 20 0 -20
v 20 40 -17
v 20 40 -18
v 20 40 -20
v -20 12 -16
v -20 25 -16
v -20 26 -16
v -17 0 -16
v -17 9 -16
v -17 29 -16
v -17 40 -16
v -16 0 -16
v -16 8 -16
v -16 29 -16
v -16 40 -16
v -12 12 -16
v -12 25 -16
v -12 26 -16
v 17 0 -16
v 17 8 -16
v 17 9 -16
v 17 29 -16
v 17 40 -16
v -20 0 -17
v -20 11 -17
v -20 12 -17
v -20 26 -17
v -20 40 -17
v -17 0 -17
v -17 9 -17
v -17 28 -17
v -17 29 -17
v -17 40 -17
v -16 29 -17
v -12 11 -17
v -12 12 -17
v -12 25 -17
v -12 26 -17
v 17 0 -17
v 17 8 -17
v 17 9 -17
v 17 28 -17
v 17 29 -17
v 17 40 -17
v 20 0 -17
v 20 40 -17
v -20 0 -20
v -20 40 -20
v 20 0 -20
v 20 40 -20
v -17 0 -16
v -16 0 -16
v 17 0 -16
v -20 0 -17
v -17 0 -17
v -16 0 -17
v 17 0 -17
v 20 0 -17
v -20 0 -18
v -17 0 -18
v 17 0 -18
v 20 0 -18
v -20 0 -20
v 20 0 -20
v -20 12 -16
v -12 12 -16
v -20 12 -17
v -12 12 -17
v -17 29 -16
v -16 29 -16
v 17 29 -16
v -17 29 -17
v -16 29 -17
v 17 29 -17
v -17 9 -16
v 17 9 -16
v -17 9 -17
v 17 9 -17
v -20 26 -16
v -12 26 -16
v -20 26 -17
v -12 26 -17
v -17 40 -16
v -16 40 -16
v 17 40 -16
v -20 40 -17
v -17 40 -17
v -16 40 -17
v 17 40 -17
v 20 40 -17
v -20 40 -18
v -17 40 -18
v 17 40 -18
v 20 40 -18
v -20 40 -20
v 20 40 -20

# faces
f 4/3/1 2/3/1 1/3/1
f 5/2/1 3/2/1 2/2/1
f 5/3/1 2/3/1 4/3/1
f 7/4/1 5/4/1 4/4/1
f 8/2/1 3/2/1 5/2/1
f 8/4/1 5/4/1 7/4/1
f 9/2/1 7/2/1 6/2/1
f 9/2/1 8/2/1 7/2/1
f 10/2/1 8/2/1 9/2/1
f 11/1/1 10/1/1 9/1/1
f 12/2/1 8/2/1 10/2/1
f 12/1/1 10/1/1 11/1/1
f 13/2/1 3/2/1 8/2/1
f 13/2/1 8/2/1 12/2/1
f 14/3/1 13/3/1 12/3/1
f 15/2/1 3/2/1 13/2/1
f 15/3/1 13/3/1 14/3/1
f 16/2/1 3/2/1 15/2/1
f 19/1/1 18/1/1 17/1/1
f 20/1/1 18/1/1 19/1/1
f 23/1/1 22/1/1 21/1/1
f 24/1/1 22/1/1 23/1/1
f 25/2/2 26/2/2 27/2/2
f 27/2/2 26/2/2 28/2/2
f 27/1/2 28/1/2 29/1/2
f 29/1/2 28/1/2 30/1/2
f 31/2/2 32/2/2 33/2/2
f 33/2/2 32/2/2 34/2/2
f 33/1/2 34/1/2 35/1/2
f 35/1/2 34/1/2 36/1/2
f 37/2/2 38/2/2 39/2/2
f 39/2/2 38/2/2 40/2/2
f 41/3/2 42/3/2 44/3/2
f 42/2/2 43/2/2 45/2/2
f 44/3/2 42/3/2 45/3/2
f 45/2/2 43/2/2 46/2/2
f 54/1/3 51/1/3 50/1/3
f 55/1/3 51/1/3 54/1/3
f 56/1/3 53/1/3 52/1/3
f 57/1/3 53/1/3 56/1/3
f 58/2/3 48/2/3 47/2/3
f 59/1/3 49/1/3 48/1/3
f 59/2/3 48/2/3 58/2/3
f 60/1/3 49/1/3 59/1/3
f 61/2/3 55/2/3 54/2/3
f 62/1/3 51/1/3 55/1/3
f 62/2/3 55/2/3 61/2/3
f 63/1/3 51/1/3 62/1/3
f 64/2/3 57/2/3 56/2/3
f 65/2/3 57/2/3 64/2/3
f 71/3/3 67/3/3 66/3/3
f 72/3/3 67/3/3 71/3/3
f 73/3/3 70/3/3 69/3/3
f 74/3/3 70/3/3 73/3/3
f 75/3/3 70/3/3 74/3/3
f 76/4/3 74/4/3 73/4/3
f 77/3/3 67/3/3 72/3/3
f 77/4/3 68/4/3 67/4/3
f 78/4/3 68/4/3 77/4/3
f 80/3/3 73/3/3 69/3/3
f 83/3/3 79/3/3 78/3/3
f 83/3/3 77/3/3 72/3/3
f 83/3/3 80/3/3 79/3/3
f 83/3/3 78/3/3 77/3/3
f 84/4/3 76/4/3 73/4/3
f 84/3/3 73/3/3 80/3/3
f 84/3/3 80/3/3 83/3/3
f 85/4/3 76/4/3 84/4/3
f 87/3/3 85/3/3 84/3/3
f 87/3/3 86/3/3 85/3/3
f 87/3/3 84/3/3 83/3/3
f 87/3/3 83/3/3 82/3/3
f 87/3/3 82/3/3 81/3/3
f 88/3/3 86/3/3 87/3/3
f 89/2/4 90/2/4 91/2/4
f 91/2/4 90/2/4 92/2/4
f 97/1/5 94/1/5 93/1/5
f 98/2/5 95/2/5 94/2/5
f 98/1/5 94/1/5 97/1/5
f 99/2/5 95/2/5 98/2/5
f 101/3/5 97/3/5 96/3/5
f 102/2/5 98/2/5 97/2/5
f 102/3/5 97/3/5 101/3/5
f 102/2/5 99/2/5 98/2/5
f 103/3/5 100/3/5 99/3/5
f 103/2/5 99/2/5 102/2/5
f 104/3/5 100/3/5 103/3/5
f 105/2/5 102/2/5 101/2/5
f 105/2/5 103/2/5 102/2/5
f 105/2/5 104/2/5 103/2/5
f 106/2/5 104/2/5 105/2/5
f 109/2/5 108/2/5 107/2/5
f 110/2/5 108/2/5 109/2/5
f 114/1/5 112/1/5 111/1/5
f 115/2/5 113/2/5 112/2/5
f 115/1/5 112/1/5 114/1/5
f 116/2/5 113/2/5 115/2/5
f 117/1/6 118/1/6 119/1/6
f 119/1/6 118/1/6 120/1/6
f 121/1/6 122/1/6 123/1/6
f 123/1/6 122/1/6 124/1/6
f 125/1/6 126/1/6 129/1/6
f 126/2/6 127/2/6 130/2/6
f 129/1/6 126/1/6 130/1/6
f 130/2/6 127/2/6 131/2/6
f 128/3/6 129/3/6 133/3/6
f 129/2/6 130/2/6 134/2/6
f 133/3/6 129/3/6 134/3/6
f 130/2/6 131/2/6 134/2/6
f 131/3/6 132/3/6 135/3/6
f 134/2/6 131/2/6 135/2/6
f 135/3/6 132/3/6 136/3/6
f 133/2/6 134/2/6 137/2/6
f 134/2/6 135/2/6 137/2/6
f 135/2/6 136/2/6 137/2/6
f 137/2/6 136/2/6 138/2/6
