# MagicaVoxel @ Ephtracy

# group
g window

# material
mtllib window.mtl
usemtl palette

# normals
vn -1 0 0
vn 1 0 0
vn 0 0 1
vn 0 0 -1
vn 0 -1 0
vn 0 1 0

# texcoords
vt 0.423828 0.5
vt 0.708984 0.5
vt 0.958984 0.5
vt 0.966797 0.5
vt 0.970703 0.5
vt 0.974609 0.5
vt 0.978516 0.5
vt 0.990234 0.5

# verts
v 17 0 20
v 17 0 -20
v 17 40 20
v 17 40 -20
v 19 2 18
v 19 2 -18
v 19 3 17
v 19 3 14
v 19 3 13
v 19 3 -18
v 19 4 14
v 19 4 13
v 19 4 12
v 19 4 7
v 19 4 6
v 19 5 13
v 19 5 12
v 19 5 11
v 19 5 7
v 19 5 6
v 19 5 4
v 19 6 17
v 19 6 16
v 19 6 12
v 19 6 11
v 19 6 10
v 19 6 7
v 19 6 6
v 19 6 4
v 19 6 3
v 19 7 16
v 19 7 15
v 19 7 11
v 19 7 10
v 19 7 9
v 19 7 6
v 19 7 5
v 19 7 4
v 19 7 3
v 19 7 2
v 19 8 15
v 19 8 14
v 19 8 10
v 19 8 9
v 19 8 8
v 19 8 5
v 19 8 4
v 19 8 3
v 19 8 2
v 19 8 1
v 19 9 9
v 19 9 8
v 19 9 7
v 19 9 4
v 19 9 3
v 19 9 2
v 19 9 1
v 19 9 -0
v 19 10 14
v 19 10 13
v 19 10 8
v 19 10 7
v 19 10 6
v 19 10 3
v 19 10 2
v 19 10 1
v 19 10 -0
v 19 10 -1
v 19 11 13
v 19 11 12
v 19 11 7
v 19 11 6
v 19 11 5
v 19 11 2
v 19 11 1
v 19 11 -0
v 19 11 -1
v 19 11 -2
v 19 12 12
v 19 12 11
v 19 12 6
v 19 12 5
v 19 12 4
v 19 12 1
v 19 12 -0
v 19 12 -1
v 19 12 -2
v 19 12 -3
v 19 13 11
v 19 13 10
v 19 13 5
v 19 13 4
v 19 13 3
v 19 13 -0
v 19 13 -1
v 19 13 -2
v 19 13 -3
v 19 13 -4
v 19 14 10
v 19 14 9
v 19 14 4
v 19 14 3
v 19 14 2
v 19 14 -1
v 19 14 -2
v 19 14 -3
v 19 14 -4
v 19 14 -5
v 19 15 12
v 19 15 11
v 19 15 9
v 19 15 8
v 19 15 3
v 19 15 2
v 19 15 1
v 19 15 -2
v 19 15 -3
v 19 15 -4
v 19 15 -5
v 19 15 -6
v 19 16 12
v 19 16 11
v 19 16 10
v 19 16 8
v 19 16 7
v 19 16 2
v 19 16 1
v 19 16 -0
v 19 16 -3
v 19 16 -4
v 19 17 12
v 19 17 11
v 19 17 10
v 19 17 9
v 19 17 7
v 19 17 6
v 19 17 1
v 19 17 -0
v 19 17 -1
v 19 17 -4
v 19 17 -5
v 19 17 -6
v 19 17 -7
v 19 18 10
v 19 18 9
v 19 18 8
v 19 18 6
v 19 18 5
v 19 18 -0
v 19 18 -1
v 19 18 -2
v 19 18 -5
v 19 18 -6
v 19 18 -7
v 19 18 -8
v 19 19 11
v 19 19 10
v 19 19 9
v 19 19 8
v 19 19 7
v 19 19 5
v 19 19 4
v 19 19 -1
v 19 19 -2
v 19 19 -3
v 19 19 -6
v 19 19 -7
v 19 19 -8
v 19 19 -9
v 19 20 10
v 19 20 9
v 19 20 8
v 19 20 7
v 19 20 6
v 19 20 4
v 19 20 3
v 19 20 -2
v 19 20 -3
v 19 20 -4
v 19 20 -7
v 19 20 -8
v 19 20 -9
v 19 20 -10
v 19 21 9
v 19 21 8
v 19 21 7
v 19 21 6
v 19 21 5
v 19 21 3
v 19 21 2
v 19 21 -3
v 19 21 -4
v 19 21 -5
v 19 21 -8
v 19 21 -9
v 19 21 -10
v 19 21 -11
v 19 22 8
v 19 22 7
v 19 22 6
v 19 22 5
v 19 22 4
v 19 22 2
v 19 22 1
v 19 22 -4
v 19 22 -5
v 19 22 -6
v 19 22 -9
v 19 22 -10
v 19 22 -11
v 19 22 -12
v 19 23 7
v 19 23 6
v 19 23 5
v 19 23 4
v 19 23 3
v 19 23 1
v 19 23 -0
v 19 23 -6
v 19 23 -7
v 19 23 -10
v 19 23 -11
v 19 23 -12
v 19 23 -13
v 19 24 6
v 19 24 5
v 19 24 4
v 19 24 3
v 19 24 2
v 19 24 -0
v 19 24 -1
v 19 24 -7
v 19 24 -8
v 19 24 -11
v 19 24 -12
v 19 24 -13
v 19 24 -14
v 19 25 5
v 19 25 4
v 19 25 3
v 19 25 2
v 19 25 1
v 19 25 -1
v 19 25 -2
v 19 25 -8
v 19 25 -9
v 19 25 -12
v 19 25 -13
v 19 25 -14
v 19 25 -15
v 19 26 4
v 19 26 2
v 19 26 1
v 19 26 -0
v 19 26 -2
v 19 26 -3
v 19 26 -9
v 19 26 -10
v 19 26 -13
v 19 26 -14
v 19 26 -15
v 19 27 2
v 19 27 1
v 19 27 -0
v 19 27 -3
v 19 27 -4
v 19 27 -10
v 19 27 -11
v 19 28 -4
v 19 28 -5
v 19 28 -11
v 19 28 -12
v 19 29 -5
v 19 29 -6
v 19 29 -12
v 19 29 -13
v 19 30 -6
v 19 30 -7
v 19 31 -7
v 19 31 -8
v 19 31 -13
v 19 31 -14
v 19 32 -8
v 19 32 -9
v 19 32 -14
v 19 32 -15
v 19 33 -9
v 19 33 -10
v 19 33 -15
v 19 33 -16
v 19 34 -10
v 19 34 -12
v 19 34 -16
v 19 34 -17
v 19 35 -12
v 19 35 -13
v 19 36 -13
v 19 36 -14
v 19 36 -17
v 19 36 -18
v 19 37 -14
v 19 37 -16
v 19 38 18
v 19 38 17
v 19 38 -16
v 19 38 -18
v 20 0 20
v 20 0 -20
v 20 1 19
v 20 1 -19
v 20 2 18
v 20 2 -18
v 20 2 -19
v 20 38 18
v 20 38 -18
v 20 39 19
v 20 39 18
v 20 39 -19
v 20 40 20
v 20 40 -20
v 17 0 20
v 17 40 20
v 18 0 20
v 18 40 20
v 19 0 20
v 19 40 20
v 20 0 20
v 20 40 20
v 19 2 -18
v 19 3 -18
v 19 36 -18
v 19 38 -18
v 20 2 -18
v 20 38 -18
v 19 2 18
v 19 38 18
v 20 2 18
v 20 38 18
v 17 0 -20
v 17 40 -20
v 18 0 -20
v 18 40 -20
v 19 0 -20
v 19 40 -20
v 20 0 -20
v 20 40 -20
v 17 0 20
v 18 0 20
v 19 0 20
v 20 0 20
v 17 0 -20
v 18 0 -20
v 19 0 -20
v 20 0 -20
v 19 38 18
v 20 38 18
v 19 38 17
v 19 38 -16
v 19 38 -18
v 20 38 -18
v 19 2 18
v 20 2 18
v 19 2 -18
v 20 2 -18
v 17 40 20
v 18 40 20
v 19 40 20
v 20 40 20
v 17 40 -20
v 18 40 -20
v 19 40 -20
v 20 40 -20

# faces
f 3/7/1 2/7/1 1/7/1
f 4/7/1 2/7/1 3/7/1
f 5/8/2 6/8/2 7/8/2
f 7/8/2 6/8/2 8/8/2
f 8/8/2 6/8/2 9/8/2
f 9/8/2 6/8/2 10/8/2
f 7/3/2 8/3/2 11/3/2
f 8/2/2 9/2/2 11/2/2
f 9/1/2 10/1/2 12/1/2
f 11/2/2 9/2/2 12/2/2
f 12/1/2 10/1/2 13/1/2
f 13/1/2 10/1/2 14/1/2
f 14/1/2 10/1/2 15/1/2
f 11/3/2 12/3/2 16/3/2
f 12/2/2 13/2/2 16/2/2
f 13/1/2 14/1/2 17/1/2
f 16/2/2 13/2/2 17/2/2
f 17/1/2 14/1/2 18/1/2
f 14/2/2 15/2/2 19/2/2
f 18/1/2 14/1/2 19/1/2
f 15/1/2 10/1/2 20/1/2
f 19/2/2 15/2/2 20/2/2
f 20/1/2 10/1/2 21/1/2
f 5/8/2 7/8/2 22/8/2
f 7/3/2 11/3/2 22/3/2
f 11/3/2 16/3/2 22/3/2
f 16/3/2 17/3/2 22/3/2
f 22/3/2 17/3/2 23/3/2
f 17/2/2 18/2/2 24/2/2
f 23/3/2 17/3/2 24/3/2
f 18/1/2 19/1/2 25/1/2
f 24/2/2 18/2/2 25/2/2
f 25/1/2 19/1/2 26/1/2
f 19/3/2 20/3/2 27/3/2
f 26/1/2 19/1/2 27/1/2
f 20/2/2 21/2/2 28/2/2
f 27/3/2 20/3/2 28/3/2
f 21/1/2 10/1/2 29/1/2
f 28/2/2 21/2/2 29/2/2
f 29/1/2 10/1/2 30/1/2
f 23/3/2 24/3/2 31/3/2
f 22/1/2 23/1/2 31/1/2
f 24/3/2 25/3/2 31/3/2
f 31/3/2 25/3/2 32/3/2
f 25/2/2 26/2/2 33/2/2
f 32/3/2 25/3/2 33/3/2
f 27/1/2 28/1/2 34/1/2
f 33/2/2 26/2/2 34/2/2
f 26/1/2 27/1/2 34/1/2
f 34/1/2 28/1/2 35/1/2
f 28/3/2 29/3/2 36/3/2
f 35/1/2 28/1/2 36/1/2
f 36/3/2 29/3/2 37/3/2
f 29/2/2 30/2/2 38/2/2
f 37/3/2 29/3/2 38/3/2
f 30/1/2 10/1/2 39/1/2
f 38/2/2 30/2/2 39/2/2
f 39/1/2 10/1/2 40/1/2
f 32/3/2 33/3/2 41/3/2
f 31/1/2 32/1/2 41/1/2
f 33/3/2 34/3/2 41/3/2
f 41/3/2 34/3/2 42/3/2
f 34/2/2 35/2/2 43/2/2
f 42/3/2 34/3/2 43/3/2
f 36/1/2 37/1/2 44/1/2
f 43/2/2 35/2/2 44/2/2
f 35/1/2 36/1/2 44/1/2
f 44/1/2 37/1/2 45/1/2
f 37/3/2 38/3/2 46/3/2
f 45/1/2 37/1/2 46/1/2
f 38/3/2 39/3/2 46/3/2
f 46/3/2 39/3/2 47/3/2
f 39/2/2 40/2/2 48/2/2
f 47/3/2 39/3/2 48/3/2
f 40/1/2 10/1/2 49/1/2
f 48/2/2 40/2/2 49/2/2
f 49/1/2 10/1/2 50/1/2
f 44/2/2 45/2/2 51/2/2
f 42/3/2 43/3/2 51/3/2
f 43/3/2 44/3/2 51/3/2
f 46/1/2 47/1/2 52/1/2
f 51/2/2 45/2/2 52/2/2
f 45/1/2 46/1/2 52/1/2
f 52/1/2 47/1/2 53/1/2
f 47/3/2 48/3/2 54/3/2
f 53/1/2 47/1/2 54/1/2
f 48/3/2 49/3/2 54/3/2
f 54/3/2 49/3/2 55/3/2
f 49/2/2 50/2/2 56/2/2
f 55/3/2 49/3/2 56/3/2
f 50/1/2 10/1/2 57/1/2
f 56/2/2 50/2/2 57/2/2
f 57/1/2 10/1/2 58/1/2
f 42/3/2 51/3/2 59/3/2
f 41/1/2 42/1/2 59/1/2
f 51/3/2 52/3/2 59/3/2
f 59/3/2 52/3/2 60/3/2
f 52/2/2 53/2/2 61/2/2
f 60/3/2 52/3/2 61/3/2
f 54/1/2 55/1/2 62/1/2
f 61/2/2 53/2/2 62/2/2
f 53/1/2 54/1/2 62/1/2
f 62/1/2 55/1/2 63/1/2
f 55/3/2 56/3/2 64/3/2
f 63/1/2 55/1/2 64/1/2
f 56/3/2 57/3/2 64/3/2
f 64/3/2 57/3/2 65/3/2
f 57/2/2 58/2/2 66/2/2
f 65/3/2 57/3/2 66/3/2
f 58/1/2 10/1/2 67/1/2
f 66/2/2 58/2/2 67/2/2
f 67/1/2 10/1/2 68/1/2
f 59/1/2 60/1/2 69/1/2
f 60/3/2 61/3/2 69/3/2
f 61/3/2 62/3/2 69/3/2
f 69/3/2 62/3/2 70/3/2
f 62/2/2 63/2/2 71/2/2
f 70/3/2 62/3/2 71/3/2
f 64/1/2 65/1/2 72/1/2
f 71/2/2 63/2/2 72/2/2
f 63/1/2 64/1/2 72/1/2
f 72/1/2 65/1/2 73/1/2
f 65/3/2 66/3/2 74/3/2
f 73/1/2 65/1/2 74/1/2
f 66/3/2 67/3/2 74/3/2
f 74/3/2 67/3/2 75/3/2
f 67/2/2 68/2/2 76/2/2
f 75/3/2 67/3/2 76/3/2
f 68/1/2 10/1/2 77/1/2
f 76/2/2 68/2/2 77/2/2
f 77/1/2 10/1/2 78/1/2
f 69/1/2 70/1/2 79/1/2
f 70/3/2 71/3/2 79/3/2
f 71/3/2 72/3/2 79/3/2
f 79/3/2 72/3/2 80/3/2
f 72/2/2 73/2/2 81/2/2
f 80/3/2 72/3/2 81/3/2
f 74/1/2 75/1/2 82/1/2
f 81/2/2 73/2/2 82/2/2
f 73/1/2 74/1/2 82/1/2
f 82/1/2 75/1/2 83/1/2
f 75/3/2 76/3/2 84/3/2
f 83/1/2 75/1/2 84/1/2
f 76/3/2 77/3/2 84/3/2
f 84/3/2 77/3/2 85/3/2
f 77/2/2 78/2/2 86/2/2
f 85/3/2 77/3/2 86/3/2
f 78/1/2 10/1/2 87/1/2
f 86/2/2 78/2/2 87/2/2
f 87/1/2 10/1/2 88/1/2
f 80/3/2 81/3/2 89/3/2
f 79/1/2 80/1/2 89/1/2
f 81/3/2 82/3/2 89/3/2
f 89/3/2 82/3/2 90/3/2
f 82/2/2 83/2/2 91/2/2
f 90/3/2 82/3/2 91/3/2
f 84/1/2 85/1/2 92/1/2
f 91/2/2 83/2/2 92/2/2
f 83/1/2 84/1/2 92/1/2
f 92/1/2 85/1/2 93/1/2
f 85/3/2 86/3/2 94/3/2
f 93/1/2 85/1/2 94/1/2
f 86/3/2 87/3/2 94/3/2
f 94/3/2 87/3/2 95/3/2
f 87/2/2 88/2/2 96/2/2
f 95/3/2 87/3/2 96/3/2
f 88/1/2 10/1/2 97/1/2
f 96/2/2 88/2/2 97/2/2
f 97/1/2 10/1/2 98/1/2
f 89/1/2 90/1/2 99/1/2
f 90/3/2 91/3/2 99/3/2
f 91/3/2 92/3/2 99/3/2
f 99/3/2 92/3/2 100/3/2
f 92/2/2 93/2/2 101/2/2
f 100/3/2 92/3/2 101/3/2
f 94/1/2 95/1/2 102/1/2
f 101/2/2 93/2/2 102/2/2
f 93/1/2 94/1/2 102/1/2
f 102/1/2 95/1/2 103/1/2
f 95/3/2 96/3/2 104/3/2
f 103/1/2 95/1/2 104/1/2
f 96/3/2 97/3/2 104/3/2
f 104/3/2 97/3/2 105/3/2
f 97/2/2 98/2/2 106/2/2
f 105/3/2 97/3/2 106/3/2
f 98/1/2 10/1/2 107/1/2
f 106/2/2 98/2/2 107/2/2
f 107/1/2 10/1/2 108/1/2
f 99/1/2 100/1/2 109/1/2
f 69/1/2 79/1/2 109/1/2
f 79/1/2 89/1/2 109/1/2
f 89/1/2 99/1/2 109/1/2
f 109/1/2 100/1/2 110/1/2
f 100/3/2 101/3/2 111/3/2
f 110/1/2 100/1/2 111/1/2
f 101/3/2 102/3/2 111/3/2
f 111/3/2 102/3/2 112/3/2
f 102/2/2 103/2/2 113/2/2
f 112/3/2 102/3/2 113/3/2
f 104/1/2 105/1/2 114/1/2
f 113/2/2 103/2/2 114/2/2
f 103/1/2 104/1/2 114/1/2
f 114/1/2 105/1/2 115/1/2
f 105/3/2 106/3/2 116/3/2
f 115/1/2 105/1/2 116/1/2
f 106/3/2 107/3/2 116/3/2
f 116/3/2 107/3/2 117/3/2
f 107/2/2 108/2/2 118/2/2
f 117/3/2 107/3/2 118/3/2
f 108/1/2 10/1/2 119/1/2
f 118/2/2 108/2/2 119/2/2
f 119/1/2 10/1/2 120/1/2
f 109/2/2 110/2/2 121/2/2
f 69/1/2 109/1/2 121/1/2
f 111/1/2 112/1/2 122/1/2
f 121/2/2 110/2/2 122/2/2
f 110/1/2 111/1/2 122/1/2
f 122/1/2 112/1/2 123/1/2
f 112/3/2 113/3/2 124/3/2
f 123/1/2 112/1/2 124/1/2
f 113/3/2 114/3/2 124/3/2
f 124/3/2 114/3/2 125/3/2
f 114/2/2 115/2/2 126/2/2
f 125/3/2 114/3/2 126/3/2
f 116/1/2 117/1/2 127/1/2
f 126/2/2 115/2/2 127/2/2
f 115/1/2 116/1/2 127/1/2
f 127/1/2 117/1/2 128/1/2
f 117/3/2 118/3/2 129/3/2
f 128/1/2 117/1/2 129/1/2
f 118/3/2 119/3/2 129/3/2
f 129/3/2 119/3/2 130/3/2
f 69/1/2 121/1/2 131/1/2
f 121/3/2 122/3/2 131/3/2
f 122/2/2 123/2/2 132/2/2
f 131/3/2 122/3/2 132/3/2
f 124/1/2 125/1/2 133/1/2
f 132/2/2 123/2/2 133/2/2
f 123/1/2 124/1/2 133/1/2
f 133/1/2 125/1/2 134/1/2
f 125/3/2 126/3/2 135/3/2
f 134/1/2 125/1/2 135/1/2
f 126/3/2 127/3/2 135/3/2
f 135/3/2 127/3/2 136/3/2
f 127/2/2 128/2/2 137/2/2
f 136/3/2 127/3/2 137/3/2
f 129/1/2 130/1/2 138/1/2
f 137/2/2 128/2/2 138/2/2
f 128/1/2 129/1/2 138/1/2
f 138/1/2 130/1/2 139/1/2
f 130/3/2 119/3/2 140/3/2
f 139/1/2 130/1/2 140/1/2
f 119/2/2 120/2/2 141/2/2
f 140/3/2 119/3/2 141/3/2
f 120/1/2 10/1/2 142/1/2
f 141/2/2 120/2/2 142/2/2
f 142/1/2 10/1/2 143/1/2
f 133/2/2 134/2/2 144/2/2
f 132/3/2 133/3/2 144/3/2
f 135/1/2 136/1/2 145/1/2
f 144/2/2 134/2/2 145/2/2
f 134/1/2 135/1/2 145/1/2
f 145/1/2 136/1/2 146/1/2
f 136/3/2 137/3/2 147/3/2
f 146/1/2 136/1/2 147/1/2
f 137/3/2 138/3/2 147/3/2
f 147/3/2 138/3/2 148/3/2
f 138/2/2 139/2/2 149/2/2
f 148/3/2 138/3/2 149/3/2
f 140/1/2 141/1/2 150/1/2
f 149/2/2 139/2/2 150/2/2
f 139/1/2 140/1/2 150/1/2
f 150/1/2 141/1/2 151/1/2
f 141/3/2 142/3/2 152/3/2
f 151/1/2 141/1/2 152/1/2
f 142/2/2 143/2/2 153/2/2
f 152/3/2 142/3/2 153/3/2
f 143/1/2 10/1/2 154/1/2
f 153/2/2 143/2/2 154/2/2
f 154/1/2 10/1/2 155/1/2
f 131/1/2 132/1/2 156/1/2
f 132/3/2 144/3/2 156/3/2
f 144/3/2 145/3/2 156/3/2
f 156/3/2 145/3/2 157/3/2
f 145/2/2 146/2/2 158/2/2
f 157/3/2 145/3/2 158/3/2
f 147/1/2 148/1/2 159/1/2
f 158/2/2 146/2/2 159/2/2
f 146/1/2 147/1/2 159/1/2
f 159/1/2 148/1/2 160/1/2
f 148/3/2 149/3/2 161/3/2
f 160/1/2 148/1/2 161/1/2
f 149/3/2 150/3/2 161/3/2
f 161/3/2 150/3/2 162/3/2
f 150/2/2 151/2/2 163/2/2
f 162/3/2 150/3/2 163/3/2
f 152/1/2 153/1/2 164/1/2
f 163/2/2 151/2/2 164/2/2
f 151/1/2 152/1/2 164/1/2
f 164/1/2 153/1/2 165/1/2
f 153/3/2 154/3/2 166/3/2
f 165/1/2 153/1/2 166/1/2
f 154/2/2 155/2/2 167/2/2
f 166/3/2 154/3/2 167/3/2
f 155/1/2 10/1/2 168/1/2
f 167/2/2 155/2/2 168/2/2
f 168/1/2 10/1/2 169/1/2
f 157/3/2 158/3/2 170/3/2
f 156/1/2 157/1/2 170/1/2
f 158/3/2 159/3/2 170/3/2
f 170/3/2 159/3/2 171/3/2
f 159/2/2 160/2/2 172/2/2
f 171/3/2 159/3/2 172/3/2
f 160/1/2 161/1/2 173/1/2
f 172/2/2 160/2/2 173/2/2
f 161/1/2 162/1/2 173/1/2
f 173/1/2 162/1/2 174/1/2
f 162/3/2 163/3/2 175/3/2
f 174/1/2 162/1/2 175/1/2
f 163/3/2 164/3/2 175/3/2
f 175/3/2 164/3/2 176/3/2
f 164/2/2 165/2/2 177/2/2
f 176/3/2 164/3/2 177/3/2
f 166/1/2 167/1/2 178/1/2
f 177/2/2 165/2/2 178/2/2
f 165/1/2 166/1/2 178/1/2
f 178/1/2 167/1/2 179/1/2
f 167/3/2 168/3/2 180/3/2
f 179/1/2 167/1/2 180/1/2
f 168/2/2 169/2/2 181/2/2
f 180/3/2 168/3/2 181/3/2
f 169/1/2 10/1/2 182/1/2
f 181/2/2 169/2/2 182/2/2
f 182/1/2 10/1/2 183/1/2
f 170/1/2 171/1/2 184/1/2
f 171/3/2 172/3/2 184/3/2
f 172/3/2 173/3/2 184/3/2
f 184/3/2 173/3/2 185/3/2
f 173/2/2 174/2/2 186/2/2
f 185/3/2 173/3/2 186/3/2
f 174/1/2 175/1/2 187/1/2
f 186/2/2 174/2/2 187/2/2
f 175/1/2 176/1/2 187/1/2
f 187/1/2 176/1/2 188/1/2
f 176/3/2 177/3/2 189/3/2
f 188/1/2 176/1/2 189/1/2
f 177/3/2 178/3/2 189/3/2
f 189/3/2 178/3/2 190/3/2
f 178/2/2 179/2/2 191/2/2
f 190/3/2 178/3/2 191/3/2
f 180/1/2 181/1/2 192/1/2
f 191/2/2 179/2/2 192/2/2
f 179/1/2 180/1/2 192/1/2
f 192/1/2 181/1/2 193/1/2
f 181/3/2 182/3/2 194/3/2
f 193/1/2 181/1/2 194/1/2
f 182/2/2 183/2/2 195/2/2
f 194/3/2 182/3/2 195/3/2
f 183/1/2 10/1/2 196/1/2
f 195/2/2 183/2/2 196/2/2
f 196/1/2 10/1/2 197/1/2
f 185/3/2 186/3/2 198/3/2
f 184/1/2 185/1/2 198/1/2
f 186/3/2 187/3/2 198/3/2
f 198/3/2 187/3/2 199/3/2
f 187/2/2 188/2/2 200/2/2
f 199/3/2 187/3/2 200/3/2
f 188/1/2 189/1/2 201/1/2
f 200/2/2 188/2/2 201/2/2
f 189/1/2 190/1/2 201/1/2
f 201/1/2 190/1/2 202/1/2
f 190/3/2 191/3/2 203/3/2
f 202/1/2 190/1/2 203/1/2
f 191/3/2 192/3/2 203/3/2
f 203/3/2 192/3/2 204/3/2
f 192/2/2 193/2/2 205/2/2
f 204/3/2 192/3/2 205/3/2
f 194/1/2 195/1/2 206/1/2
f 205/2/2 193/2/2 206/2/2
f 193/1/2 194/1/2 206/1/2
f 206/1/2 195/1/2 207/1/2
f 195/3/2 196/3/2 208/3/2
f 207/1/2 195/1/2 208/1/2
f 196/2/2 197/2/2 209/2/2
f 208/3/2 196/3/2 209/3/2
f 197/1/2 10/1/2 210/1/2
f 209/2/2 197/2/2 210/2/2
f 210/1/2 10/1/2 211/1/2
f 198/1/2 199/1/2 212/1/2
f 199/3/2 200/3/2 212/3/2
f 200/3/2 201/3/2 212/3/2
f 212/3/2 201/3/2 213/3/2
f 201/2/2 202/2/2 214/2/2
f 213/3/2 201/3/2 214/3/2
f 202/1/2 203/1/2 215/1/2
f 214/2/2 202/2/2 215/2/2
f 203/1/2 204/1/2 215/1/2
f 215/1/2 204/1/2 216/1/2
f 204/3/2 205/3/2 217/3/2
f 216/1/2 204/1/2 217/1/2
f 206/3/2 207/3/2 217/3/2
f 205/3/2 206/3/2 217/3/2
f 217/3/2 207/3/2 218/3/2
f 208/1/2 209/1/2 219/1/2
f 218/3/2 207/3/2 219/3/2
f 207/1/2 208/1/2 219/1/2
f 219/1/2 209/1/2 220/1/2
f 209/3/2 210/3/2 221/3/2
f 220/1/2 209/1/2 221/1/2
f 210/2/2 211/2/2 222/2/2
f 221/3/2 210/3/2 222/3/2
f 211/1/2 10/1/2 223/1/2
f 222/2/2 211/2/2 223/2/2
f 223/1/2 10/1/2 224/1/2
f 212/1/2 213/1/2 225/1/2
f 213/3/2 214/3/2 225/3/2
f 214/3/2 215/3/2 225/3/2
f 225/3/2 215/3/2 226/3/2
f 215/2/2 216/2/2 227/2/2
f 226/3/2 215/3/2 227/3/2
f 217/1/2 218/1/2 228/1/2
f 227/2/2 216/2/2 228/2/2
f 216/1/2 217/1/2 228/1/2
f 228/1/2 218/1/2 229/1/2
f 219/3/2 220/3/2 230/3/2
f 229/1/2 218/1/2 230/1/2
f 218/3/2 219/3/2 230/3/2
f 230/3/2 220/3/2 231/3/2
f 221/1/2 222/1/2 232/1/2
f 231/3/2 220/3/2 232/3/2
f 220/1/2 221/1/2 232/1/2
f 232/1/2 222/1/2 233/1/2
f 222/3/2 223/3/2 234/3/2
f 233/1/2 222/1/2 234/1/2
f 223/2/2 224/2/2 235/2/2
f 234/3/2 223/3/2 235/3/2
f 224/1/2 10/1/2 236/1/2
f 235/2/2 224/2/2 236/2/2
f 236/1/2 10/1/2 237/1/2
f 226/3/2 227/3/2 238/3/2
f 225/1/2 226/1/2 238/1/2
f 227/3/2 228/3/2 238/3/2
f 238/3/2 228/3/2 239/3/2
f 228/2/2 229/2/2 240/2/2
f 239/3/2 228/3/2 240/3/2
f 230/1/2 231/1/2 241/1/2
f 240/2/2 229/2/2 241/2/2
f 229/1/2 230/1/2 241/1/2
f 241/1/2 231/1/2 242/1/2
f 232/3/2 233/3/2 243/3/2
f 242/1/2 231/1/2 243/1/2
f 231/3/2 232/3/2 243/3/2
f 243/3/2 233/3/2 244/3/2
f 234/1/2 235/1/2 245/1/2
f 244/3/2 233/3/2 245/3/2
f 233/1/2 234/1/2 245/1/2
f 245/1/2 235/1/2 246/1/2
f 235/3/2 236/3/2 247/3/2
f 246/1/2 235/1/2 247/1/2
f 236/2/2 237/2/2 248/2/2
f 247/3/2 236/3/2 248/3/2
f 237/1/2 10/1/2 249/1/2
f 248/2/2 237/2/2 249/2/2
f 249/1/2 10/1/2 250/1/2
f 239/3/2 240/3/2 251/3/2
f 238/1/2 239/1/2 251/1/2
f 240/3/2 241/3/2 251/3/2
f 241/2/2 242/2/2 252/2/2
f 251/3/2 241/3/2 252/3/2
f 243/1/2 244/1/2 253/1/2
f 252/2/2 242/2/2 253/2/2
f 242/1/2 243/1/2 253/1/2
f 253/1/2 244/1/2 254/1/2
f 244/3/2 245/3/2 255/3/2
f 254/1/2 244/1/2 255/1/2
f 245/3/2 246/3/2 255/3/2
f 255/3/2 246/3/2 256/3/2
f 247/1/2 248/1/2 257/1/2
f 256/3/2 246/3/2 257/3/2
f 246/1/2 247/1/2 257/1/2
f 257/1/2 248/1/2 258/1/2
f 248/3/2 249/3/2 259/3/2
f 258/1/2 248/1/2 259/1/2
f 249/2/2 250/2/2 260/2/2
f 259/3/2 249/3/2 260/3/2
f 250/1/2 10/1/2 261/1/2
f 260/2/2 250/2/2 261/2/2
f 251/1/2 252/1/2 262/1/2
f 252/3/2 253/3/2 262/3/2
f 253/2/2 254/2/2 263/2/2
f 262/3/2 253/3/2 263/3/2
f 255/1/2 256/1/2 264/1/2
f 263/2/2 254/2/2 264/2/2
f 254/1/2 255/1/2 264/1/2
f 256/3/2 257/3/2 265/3/2
f 264/1/2 256/1/2 265/1/2
f 257/3/2 258/3/2 265/3/2
f 265/3/2 258/3/2 266/3/2
f 259/1/2 260/1/2 267/1/2
f 266/3/2 258/3/2 267/3/2
f 258/1/2 259/1/2 267/1/2
f 260/1/2 261/1/2 267/1/2
f 267/1/2 261/1/2 268/1/2
f 265/1/2 266/1/2 269/1/2
f 262/1/2 263/1/2 269/1/2
f 267/3/2 268/3/2 269/3/2
f 266/3/2 267/3/2 269/3/2
f 264/1/2 265/1/2 269/1/2
f 263/1/2 264/1/2 269/1/2
f 269/3/2 268/3/2 270/3/2
f 268/1/2 261/1/2 271/1/2
f 270/3/2 268/3/2 271/3/2
f 271/1/2 261/1/2 272/1/2
f 269/1/2 270/1/2 273/1/2
f 270/3/2 271/3/2 273/3/2
f 271/3/2 272/3/2 273/3/2
f 273/3/2 272/3/2 274/3/2
f 272/1/2 261/1/2 275/1/2
f 274/3/2 272/3/2 275/3/2
f 275/1/2 261/1/2 276/1/2
f 273/1/2 274/1/2 277/1/2
f 274/3/2 275/3/2 277/3/2
f 275/3/2 276/3/2 277/3/2
f 277/3/2 276/3/2 278/3/2
f 277/1/2 278/1/2 279/1/2
f 278/3/2 276/3/2 279/3/2
f 279/3/2 276/3/2 280/3/2
f 276/1/2 261/1/2 281/1/2
f 280/3/2 276/3/2 281/3/2
f 281/1/2 261/1/2 282/1/2
f 279/1/2 280/1/2 283/1/2
f 280/3/2 281/3/2 283/3/2
f 281/3/2 282/3/2 283/3/2
f 283/3/2 282/3/2 284/3/2
f 282/1/2 261/1/2 285/1/2
f 284/3/2 282/3/2 285/3/2
f 261/1/2 10/1/2 286/1/2
f 285/1/2 261/1/2 286/1/2
f 283/1/2 284/1/2 287/1/2
f 284/3/2 285/3/2 287/3/2
f 285/3/2 286/3/2 287/3/2
f 287/3/2 286/3/2 288/3/2
f 286/1/2 10/1/2 289/1/2
f 288/3/2 286/3/2 289/3/2
f 289/1/2 10/1/2 290/1/2
f 287/1/2 288/1/2 291/1/2
f 288/3/2 289/3/2 291/3/2
f 289/3/2 290/3/2 291/3/2
f 291/3/2 290/3/2 292/3/2
f 290/1/2 10/1/2 293/1/2
f 292/3/2 290/3/2 293/3/2
f 293/1/2 10/1/2 294/1/2
f 291/1/2 292/1/2 295/1/2
f 292/3/2 293/3/2 295/3/2
f 293/3/2 294/3/2 295/3/2
f 295/3/2 294/3/2 296/3/2
f 295/1/2 296/1/2 297/1/2
f 296/3/2 294/3/2 297/3/2
f 297/3/2 294/3/2 298/3/2
f 294/1/2 10/1/2 299/1/2
f 298/3/2 294/3/2 299/3/2
f 299/1/2 10/1/2 300/1/2
f 297/1/2 298/1/2 301/1/2
f 298/3/2 299/3/2 301/3/2
f 299/3/2 300/3/2 301/3/2
f 301/3/2 300/3/2 302/3/2
f 5/8/2 22/8/2 303/8/2
f 22/1/2 31/1/2 304/1/2
f 303/8/2 22/8/2 304/8/2
f 238/1/2 251/1/2 304/1/2
f 301/1/2 302/1/2 304/1/2
f 297/1/2 301/1/2 304/1/2
f 295/1/2 297/1/2 304/1/2
f 291/1/2 295/1/2 304/1/2
f 287/1/2 291/1/2 304/1/2
f 283/1/2 287/1/2 304/1/2
f 277/1/2 279/1/2 304/1/2
f 273/1/2 277/1/2 304/1/2
f 269/1/2 273/1/2 304/1/2
f 262/1/2 269/1/2 304/1/2
f 184/1/2 198/1/2 304/1/2
f 170/1/2 184/1/2 304/1/2
f 156/1/2 170/1/2 304/1/2
f 251/1/2 262/1/2 304/1/2
f 225/1/2 238/1/2 304/1/2
f 212/1/2 225/1/2 304/1/2
f 59/1/2 69/1/2 304/1/2
f 41/1/2 59/1/2 304/1/2
f 31/1/2 41/1/2 304/1/2
f 131/1/2 156/1/2 304/1/2
f 69/1/2 131/1/2 304/1/2
f 279/1/2 283/1/2 304/1/2
f 198/1/2 212/1/2 304/1/2
f 302/3/2 300/3/2 305/3/2
f 304/1/2 302/1/2 305/1/2
f 305/3/2 300/3/2 306/3/2
f 307/7/2 308/7/2 309/7/2
f 309/7/2 308/7/2 310/7/2
f 309/5/2 310/5/2 311/5/2
f 311/5/2 310/5/2 312/5/2
f 310/7/2 308/7/2 313/7/2
f 312/5/2 310/5/2 313/5/2
f 309/5/2 311/5/2 314/5/2
f 312/6/2 313/6/2 315/6/2
f 307/7/2 309/7/2 316/7/2
f 309/5/2 314/5/2 316/5/2
f 314/6/2 315/6/2 317/6/2
f 316/5/2 314/5/2 317/5/2
f 313/7/2 308/7/2 318/7/2
f 317/6/2 315/6/2 318/6/2
f 315/6/2 313/6/2 318/6/2
f 307/7/2 316/7/2 319/7/2
f 316/7/2 317/7/2 319/7/2
f 317/7/2 318/7/2 319/7/2
f 318/7/2 308/7/2 320/7/2
f 319/7/2 318/7/2 320/7/2
f 323/7/3 322/7/3 321/7/3
f 324/7/3 322/7/3 323/7/3
f 325/4/3 324/4/3 323/4/3
f 326/4/3 324/4/3 325/4/3
f 327/7/3 326/7/3 325/7/3
f 328/7/3 326/7/3 327/7/3
f 333/6/3 330/6/3 329/6/3
f 333/6/3 332/6/3 331/6/3
f 333/6/3 331/6/3 330/6/3
f 334/6/3 332/6/3 333/6/3
f 335/5/4 336/5/4 337/5/4
f 337/5/4 336/5/4 338/5/4
f 339/7/4 340/7/4 341/7/4
f 341/7/4 340/7/4 342/7/4
f 341/4/4 342/4/4 343/4/4
f 343/4/4 342/4/4 344/4/4
f 343/7/4 344/7/4 345/7/4
f 345/7/4 344/7/4 346/7/4
f 351/7/5 348/7/5 347/7/5
f 352/4/5 349/4/5 348/4/5
f 352/7/5 348/7/5 351/7/5
f 353/7/5 350/7/5 349/7/5
f 353/4/5 349/4/5 352/4/5
f 354/7/5 350/7/5 353/7/5
f 357/6/5 356/6/5 355/6/5
f 358/6/5 356/6/5 357/6/5
f 359/6/5 356/6/5 358/6/5
f 360/6/5 356/6/5 359/6/5
f 361/5/6 362/5/6 363/5/6
f 363/5/6 362/5/6 364/5/6
f 365/7/6 366/7/6 369/7/6
f 366/4/6 367/4/6 370/4/6
f 369/7/6 366/7/6 370/7/6
f 367/7/6 368/7/6 371/7/6
f 370/4/6 367/4/6 371/4/6
f 371/7/6 368/7/6 372/7/6
