# MagicaVoxel @ Ephtracy

# material
mtllib weapon.mtl
usemtl palette

# normals
vn -1 0 0
vn 1 0 0
vn 0 0 1
vn 0 0 -1
vn 0 -1 0
vn 0 1 0

# texcoords
vt 0.705078 0.5
vt 0.841797 0.5
vt 0.978516 0.5
vt 0.986328 0.5
vt 0.994141 0.5

# verts
v -5 6 1
v -5 6 -0
v -5 7 1
v -5 7 -0
v -4 5 1
v -4 5 -0
v -4 6 1
v -4 6 -0
v -3 7 1
v -3 7 -0
v -3 8 1
v -3 8 -0
v -1 4 1
v -1 4 -0
v -1 5 1
v -1 5 -0
v 0 2 1
v 0 2 -0
v 0 4 1
v 0 4 -0
v 0 7 1
v 0 7 -0
v 0 8 1
v 0 8 -0
v -2 7 1
v -2 7 -0
v -2 8 1
v -2 8 -0
v 1 2 1
v 1 2 -0
v 1 5 1
v 1 5 -0
v 1 7 1
v 1 7 -0
v 1 8 1
v 1 8 -0
v 2 5 1
v 2 5 -0
v 2 6 1
v 2 6 -0
v 2 7 1
v 2 7 -0
v -5 6 1
v -5 7 1
v -4 5 1
v -4 6 1
v -4 7 1
v -3 7 1
v -3 8 1
v -2 6 1
v -2 7 1
v -2 8 1
v -1 4 1
v -1 5 1
v -1 6 1
v -1 7 1
v 0 2 1
v 0 4 1
v 0 5 1
v 0 6 1
v 0 7 1
v 0 8 1
v 1 2 1
v 1 5 1
v 1 6 1
v 1 7 1
v 1 8 1
v 2 5 1
v 2 6 1
v 2 7 1
v -5 6 -0
v -5 7 -0
v -4 5 -0
v -4 6 -0
v -4 7 -0
v -3 7 -0
v -3 8 -0
v -2 6 -0
v -2 7 -0
v -2 8 -0
v -1 4 -0
v -1 5 -0
v -1 6 -0
v -1 7 -0
v 0 2 -0
v 0 4 -0
v 0 5 -0
v 0 6 -0
v 0 7 -0
v 0 8 -0
v 1 2 -0
v 1 5 -0
v 1 6 -0
v 1 7 -0
v 1 8 -0
v 2 5 -0
v 2 6 -0
v 2 7 -0
v 0 2 1
v 1 2 1
v 0 2 -0
v 1 2 -0
v -1 4 1
v 0 4 1
v -1 4 -0
v 0 4 -0
v -4 5 1
v -1 5 1
v 1 5 1
v 2 5 1
v -4 5 -0
v -1 5 -0
v 1 5 -0
v 2 5 -0
v -5 6 1
v -4 6 1
v -5 6 -0
v -4 6 -0
v -5 7 1
v -4 7 1
v -3 7 1
v -2 7 1
v -1 7 1
v 0 7 1
v 1 7 1
v 2 7 1
v -5 7 -0
v -4 7 -0
v -3 7 -0
v -2 7 -0
v -1 7 -0
v 0 7 -0
v 1 7 -0
v 2 7 -0
v -3 8 1
v -2 8 1
v 0 8 1
v 1 8 1
v -3 8 -0
v -2 8 -0
v 0 8 -0
v 1 8 -0

# faces
f 3/2/1 2/2/1 1/2/1
f 4/2/1 2/2/1 3/2/1
f 7/4/1 6/4/1 5/4/1
f 8/4/1 6/4/1 7/4/1
f 11/1/1 10/1/1 9/1/1
f 12/1/1 10/1/1 11/1/1
f 15/5/1 14/5/1 13/5/1
f 16/5/1 14/5/1 15/5/1
f 19/3/1 18/3/1 17/3/1
f 20/3/1 18/3/1 19/3/1
f 23/2/1 22/2/1 21/2/1
f 24/2/1 22/2/1 23/2/1
f 25/1/2 26/1/2 27/1/2
f 27/1/2 26/1/2 28/1/2
f 29/3/2 30/3/2 31/3/2
f 31/3/2 30/3/2 32/3/2
f 33/2/2 34/2/2 35/2/2
f 35/2/2 34/2/2 36/2/2
f 37/4/2 38/4/2 39/4/2
f 39/4/2 38/4/2 40/4/2
f 39/3/2 40/3/2 41/3/2
f 41/3/2 40/3/2 42/3/2
f 46/2/3 44/2/3 43/2/3
f 47/2/3 44/2/3 46/2/3
f 48/3/3 47/3/3 46/3/3
f 50/4/3 46/4/3 45/4/3
f 50/3/3 48/3/3 46/3/3
f 51/1/3 49/1/3 48/1/3
f 51/3/3 48/3/3 50/3/3
f 52/1/3 49/1/3 51/1/3
f 54/4/3 50/4/3 45/4/3
f 54/4/3 51/4/3 50/4/3
f 55/4/3 51/4/3 54/4/3
f 56/4/3 51/4/3 55/4/3
f 58/5/3 54/5/3 53/5/3
f 59/4/3 55/4/3 54/4/3
f 59/5/3 54/5/3 58/5/3
f 60/3/3 56/3/3 55/3/3
f 60/4/3 55/4/3 59/4/3
f 61/3/3 56/3/3 60/3/3
f 63/3/3 58/3/3 57/3/3
f 63/3/3 59/3/3 58/3/3
f 64/4/3 60/4/3 59/4/3
f 64/3/3 59/3/3 63/3/3
f 65/1/3 61/1/3 60/1/3
f 65/4/3 60/4/3 64/4/3
f 66/2/3 62/2/3 61/2/3
f 66/1/3 61/1/3 65/1/3
f 67/2/3 62/2/3 66/2/3
f 68/4/3 65/4/3 64/4/3
f 69/3/3 66/3/3 65/3/3
f 69/4/3 65/4/3 68/4/3
f 70/3/3 66/3/3 69/3/3
f 71/2/4 72/2/4 74/2/4
f 74/2/4 72/2/4 75/2/4
f 74/3/4 75/3/4 76/3/4
f 73/4/4 74/4/4 78/4/4
f 74/3/4 76/3/4 78/3/4
f 76/1/4 77/1/4 79/1/4
f 78/3/4 76/3/4 79/3/4
f 79/1/4 77/1/4 80/1/4
f 73/4/4 78/4/4 82/4/4
f 78/4/4 79/4/4 82/4/4
f 82/4/4 79/4/4 83/4/4
f 83/4/4 79/4/4 84/4/4
f 81/5/4 82/5/4 86/5/4
f 82/4/4 83/4/4 87/4/4
f 86/5/4 82/5/4 87/5/4
f 83/3/4 84/3/4 88/3/4
f 87/4/4 83/4/4 88/4/4
f 88/3/4 84/3/4 89/3/4
f 85/3/4 86/3/4 91/3/4
f 86/3/4 87/3/4 91/3/4
f 87/4/4 88/4/4 92/4/4
f 91/3/4 87/3/4 92/3/4
f 88/1/4 89/1/4 93/1/4
f 92/4/4 88/4/4 93/4/4
f 89/2/4 90/2/4 94/2/4
f 93/1/4 89/1/4 94/1/4
f 94/2/4 90/2/4 95/2/4
f 92/4/4 93/4/4 96/4/4
f 93/3/4 94/3/4 97/3/4
f 96/4/4 93/4/4 97/4/4
f 97/3/4 94/3/4 98/3/4
f 101/3/5 100/3/5 99/3/5
f 102/3/5 100/3/5 101/3/5
f 105/5/5 104/5/5 103/5/5
f 106/5/5 104/5/5 105/5/5
f 111/4/5 108/4/5 107/4/5
f 112/4/5 108/4/5 111/4/5
f 113/4/5 110/4/5 109/4/5
f 114/4/5 110/4/5 113/4/5
f 117/2/5 116/2/5 115/2/5
f 118/2/5 116/2/5 117/2/5
f 119/2/6 120/2/6 127/2/6
f 120/3/6 121/3/6 128/3/6
f 127/2/6 120/2/6 128/2/6
f 128/3/6 121/3/6 129/3/6
f 122/4/6 123/4/6 130/4/6
f 123/3/6 124/3/6 131/3/6
f 130/4/6 123/4/6 131/4/6
f 131/3/6 124/3/6 132/3/6
f 125/3/6 126/3/6 133/3/6
f 133/3/6 126/3/6 134/3/6
f 135/1/6 136/1/6 139/1/6
f 139/1/6 136/1/6 140/1/6
f 137/2/6 138/2/6 141/2/6
f 141/2/6 138/2/6 142/2/6
