# MagicaVoxel @ Ephtracy

# group
g EL ALB

# material
mtllib EL ALB.mtl
usemtl palette

# normals
vn -1 0 0
vn 1 0 0
vn 0 0 1
vn 0 0 -1
vn 0 -1 0
vn 0 1 0

# texcoords
vt 0.212891 0.5

# verts
v -5 17 -1
v -5 17 -3
v -5 18 -1
v -5 18 -3
v -4 16 -0
v -4 16 -4
v -4 17 -1
v -4 17 -3
v -4 18 -0
v -4 18 -1
v -4 18 -3
v -4 18 -4
v -4 19 -1
v -4 19 -3
v -3 15 1
v -3 15 -5
v -3 16 -0
v -3 16 -4
v -3 17 1
v -3 17 -0
v -3 17 -4
v -3 17 -5
v -2 14 1
v -2 14 -5
v -2 15 1
v -2 15 -5
v -1 13 -0
v -1 13 -4
v -1 14 -0
v -1 14 -4
v -1 15 2
v -1 15 1
v -1 15 -5
v -1 15 -6
v -1 16 2
v -1 16 1
v -1 16 -5
v -1 16 -6
v 0 12 -0
v 0 12 -4
v 0 13 -0
v 0 13 -4
v 0 14 2
v 0 14 1
v 0 14 -5
v 0 14 -6
v 0 15 2
v 0 15 1
v 0 15 -5
v 0 15 -6
v 1 17 -0
v 1 17 -4
v 1 18 -0
v 1 18 -4
v 2 18 -1
v 2 18 -3
v 2 19 -1
v 2 19 -3
v -1 18 -1
v -1 18 -3
v -1 19 -1
v -1 19 -3
v 0 17 -0
v 0 17 -4
v 0 18 -0
v 0 18 -4
v 1 12 -0
v 1 12 -4
v 1 13 -0
v 1 13 -4
v 1 14 2
v 1 14 1
v 1 14 -5
v 1 14 -6
v 1 15 2
v 1 15 1
v 1 15 -5
v 1 15 -6
v 2 13 -0
v 2 13 -4
v 2 14 -0
v 2 14 -4
v 2 15 2
v 2 15 1
v 2 15 -5
v 2 15 -6
v 2 16 2
v 2 16 1
v 2 16 -5
v 2 16 -6
v 3 14 1
v 3 14 -5
v 3 15 1
v 3 15 -5
v 4 15 1
v 4 15 -5
v 4 16 -0
v 4 16 -4
v 4 17 1
v 4 17 -0
v 4 17 -4
v 4 17 -5
v 5 16 -0
v 5 16 -4
v 5 17 -1
v 5 17 -3
v 5 18 -0
v 5 18 -1
v 5 18 -3
v 5 18 -4
v 5 19 -1
v 5 19 -3
v 6 17 -1
v 6 17 -3
v 6 18 -1
v 6 18 -3
v -1 15 2
v -1 16 2
v 0 14 2
v 0 15 2
v 1 14 2
v 1 15 2
v 2 15 2
v 2 16 2
v -3 15 1
v -3 17 1
v -2 14 1
v -2 15 1
v -1 15 1
v -1 16 1
v 0 14 1
v 0 15 1
v 1 14 1
v 1 15 1
v 2 15 1
v 2 16 1
v 3 14 1
v 3 15 1
v 4 15 1
v 4 17 1
v -4 16 -0
v -4 18 -0
v -3 16 -0
v -3 17 -0
v -1 13 -0
v -1 14 -0
v 0 12 -0
v 0 13 -0
v 0 17 -0
v 0 18 -0
v 1 12 -0
v 1 13 -0
v 1 17 -0
v 1 18 -0
v 2 13 -0
v 2 14 -0
v 4 16 -0
v 4 17 -0
v 5 16 -0
v 5 18 -0
v -5 17 -1
v -5 18 -1
v -4 17 -1
v -4 18 -1
v -4 19 -1
v -1 18 -1
v -1 19 -1
v 2 18 -1
v 2 19 -1
v 5 17 -1
v 5 18 -1
v 5 19 -1
v 6 17 -1
v 6 18 -1
v -5 17 -3
v -5 18 -3
v -4 17 -3
v -4 18 -3
v -4 19 -3
v -1 18 -3
v -1 19 -3
v 2 18 -3
v 2 19 -3
v 5 17 -3
v 5 18 -3
v 5 19 -3
v 6 17 -3
v 6 18 -3
v -4 16 -4
v -4 18 -4
v -3 16 -4
v -3 17 -4
v -1 13 -4
v -1 14 -4
v 0 12 -4
v 0 13 -4
v 0 17 -4
v 0 18 -4
v 1 12 -4
v 1 13 -4
v 1 17 -4
v 1 18 -4
v 2 13 -4
v 2 14 -4
v 4 16 -4
v 4 17 -4
v 5 16 -4
v 5 18 -4
v -3 15 -5
v -3 17 -5
v -2 14 -5
v -2 15 -5
v -1 15 -5
v -1 16 -5
v 0 14 -5
v 0 15 -5
v 1 14 -5
v 1 15 -5
v 2 15 -5
v 2 16 -5
v 3 14 -5
v 3 15 -5
v 4 15 -5
v 4 17 -5
v -1 15 -6
v -1 16 -6
v 0 14 -6
v 0 15 -6
v 1 14 -6
v 1 15 -6
v 2 15 -6
v 2 16 -6
v 0 12 -0
v 1 12 -0
v 0 12 -4
v 1 12 -4
v -1 13 -0
v 0 13 -0
v 1 13 -0
v 2 13 -0
v -1 13 -4
v 0 13 -4
v 1 13 -4
v 2 13 -4
v 0 14 2
v 1 14 2
v -2 14 1
v 0 14 1
v 1 14 1
v 3 14 1
v -1 14 -0
v 2 14 -0
v -1 14 -4
v 2 14 -4
v -2 14 -5
v 0 14 -5
v 1 14 -5
v 3 14 -5
v 0 14 -6
v 1 14 -6
v -1 15 2
v 0 15 2
v 1 15 2
v 2 15 2
v -3 15 1
v -2 15 1
v -1 15 1
v 0 15 1
v 1 15 1
v 2 15 1
v 3 15 1
v 4 15 1
v -3 15 -5
v -2 15 -5
v -1 15 -5
v 0 15 -5
v 1 15 -5
v 2 15 -5
v 3 15 -5
v 4 15 -5
v -1 15 -6
v 0 15 -6
v 1 15 -6
v 2 15 -6
v -4 16 -0
v -3 16 -0
v 4 16 -0
v 5 16 -0
v -4 16 -4
v -3 16 -4
v 4 16 -4
v 5 16 -4
v -5 17 -1
v -4 17 -1
v 5 17 -1
v 6 17 -1
v -5 17 -3
v -4 17 -3
v 5 17 -3
v 6 17 -3
v -1 16 2
v 2 16 2
v -1 16 1
v 2 16 1
v -1 16 -5
v 2 16 -5
v -1 16 -6
v 2 16 -6
v -3 17 1
v 4 17 1
v -3 17 -0
v 0 17 -0
v 1 17 -0
v 4 17 -0
v -3 17 -4
v 0 17 -4
v 1 17 -4
v 4 17 -4
v -3 17 -5
v 4 17 -5
v -4 18 -0
v 0 18 -0
v 1 18 -0
v 5 18 -0
v -5 18 -1
v -4 18 -1
v -1 18 -1
v 2 18 -1
v 5 18 -1
v 6 18 -1
v -5 18 -3
v -4 18 -3
v -1 18 -3
v 2 18 -3
v 5 18 -3
v 6 18 -3
v -4 18 -4
v 0 18 -4
v 1 18 -4
v 5 18 -4
v -4 19 -1
v -1 19 -1
v 2 19 -1
v 5 19 -1
v -4 19 -3
v -1 19 -3
v 2 19 -3
v 5 19 -3

# faces
f 3/1/1 2/1/1 1/1/1
f 4/1/1 2/1/1 3/1/1
f 7/1/1 6/1/1 5/1/1
f 8/1/1 6/1/1 7/1/1
f 9/1/1 7/1/1 5/1/1
f 10/1/1 7/1/1 9/1/1
f 11/1/1 6/1/1 8/1/1
f 12/1/1 6/1/1 11/1/1
f 13/1/1 11/1/1 10/1/1
f 14/1/1 11/1/1 13/1/1
f 17/1/1 16/1/1 15/1/1
f 18/1/1 16/1/1 17/1/1
f 19/1/1 17/1/1 15/1/1
f 20/1/1 17/1/1 19/1/1
f 21/1/1 16/1/1 18/1/1
f 22/1/1 16/1/1 21/1/1
f 25/1/1 24/1/1 23/1/1
f 26/1/1 24/1/1 25/1/1
f 29/1/1 28/1/1 27/1/1
f 30/1/1 28/1/1 29/1/1
f 35/1/1 32/1/1 31/1/1
f 36/1/1 32/1/1 35/1/1
f 37/1/1 34/1/1 33/1/1
f 38/1/1 34/1/1 37/1/1
f 41/1/1 40/1/1 39/1/1
f 42/1/1 40/1/1 41/1/1
f 47/1/1 44/1/1 43/1/1
f 48/1/1 44/1/1 47/1/1
f 49/1/1 46/1/1 45/1/1
f 50/1/1 46/1/1 49/1/1
f 53/1/1 52/1/1 51/1/1
f 54/1/1 52/1/1 53/1/1
f 57/1/1 56/1/1 55/1/1
f 58/1/1 56/1/1 57/1/1
f 59/1/2 60/1/2 61/1/2
f 61/1/2 60/1/2 62/1/2
f 63/1/2 64/1/2 65/1/2
f 65/1/2 64/1/2 66/1/2
f 67/1/2 68/1/2 69/1/2
f 69/1/2 68/1/2 70/1/2
f 71/1/2 72/1/2 75/1/2
f 75/1/2 72/1/2 76/1/2
f 73/1/2 74/1/2 77/1/2
f 77/1/2 74/1/2 78/1/2
f 79/1/2 80/1/2 81/1/2
f 81/1/2 80/1/2 82/1/2
f 83/1/2 84/1/2 87/1/2
f 87/1/2 84/1/2 88/1/2
f 85/1/2 86/1/2 89/1/2
f 89/1/2 86/1/2 90/1/2
f 91/1/2 92/1/2 93/1/2
f 93/1/2 92/1/2 94/1/2
f 95/1/2 96/1/2 97/1/2
f 97/1/2 96/1/2 98/1/2
f 95/1/2 97/1/2 99/1/2
f 99/1/2 97/1/2 100/1/2
f 98/1/2 96/1/2 101/1/2
f 101/1/2 96/1/2 102/1/2
f 103/1/2 104/1/2 105/1/2
f 105/1/2 104/1/2 106/1/2
f 103/1/2 105/1/2 107/1/2
f 107/1/2 105/1/2 108/1/2
f 106/1/2 104/1/2 109/1/2
f 109/1/2 104/1/2 110/1/2
f 108/1/2 109/1/2 111/1/2
f 111/1/2 109/1/2 112/1/2
f 113/1/2 114/1/2 115/1/2
f 115/1/2 114/1/2 116/1/2
f 120/1/3 118/1/3 117/1/3
f 121/1/3 120/1/3 119/1/3
f 122/1/3 118/1/3 120/1/3
f 122/1/3 120/1/3 121/1/3
f 123/1/3 118/1/3 122/1/3
f 124/1/3 118/1/3 123/1/3
f 128/1/3 126/1/3 125/1/3
f 129/1/3 126/1/3 128/1/3
f 129/1/3 128/1/3 127/1/3
f 130/1/3 126/1/3 129/1/3
f 131/1/3 129/1/3 127/1/3
f 132/1/3 129/1/3 131/1/3
f 135/1/3 134/1/3 133/1/3
f 136/1/3 126/1/3 130/1/3
f 137/1/3 135/1/3 133/1/3
f 137/1/3 136/1/3 135/1/3
f 138/1/3 136/1/3 137/1/3
f 139/1/3 136/1/3 138/1/3
f 140/1/3 126/1/3 136/1/3
f 140/1/3 136/1/3 139/1/3
f 143/1/3 142/1/3 141/1/3
f 144/1/3 142/1/3 143/1/3
f 148/1/3 146/1/3 145/1/3
f 149/1/3 142/1/3 144/1/3
f 150/1/3 142/1/3 149/1/3
f 151/1/3 148/1/3 147/1/3
f 152/1/3 146/1/3 148/1/3
f 152/1/3 148/1/3 151/1/3
f 155/1/3 146/1/3 152/1/3
f 156/1/3 146/1/3 155/1/3
f 158/1/3 154/1/3 153/1/3
f 159/1/3 158/1/3 157/1/3
f 160/1/3 154/1/3 158/1/3
f 160/1/3 158/1/3 159/1/3
f 163/1/3 162/1/3 161/1/3
f 164/1/3 162/1/3 163/1/3
f 166/1/3 165/1/3 164/1/3
f 167/1/3 165/1/3 166/1/3
f 171/1/3 169/1/3 168/1/3
f 172/1/3 169/1/3 171/1/3
f 173/1/3 171/1/3 170/1/3
f 174/1/3 171/1/3 173/1/3
f 175/1/4 176/1/4 177/1/4
f 177/1/4 176/1/4 178/1/4
f 178/1/4 179/1/4 180/1/4
f 180/1/4 179/1/4 181/1/4
f 182/1/4 183/1/4 185/1/4
f 185/1/4 183/1/4 186/1/4
f 184/1/4 185/1/4 187/1/4
f 187/1/4 185/1/4 188/1/4
f 189/1/4 190/1/4 191/1/4
f 191/1/4 190/1/4 192/1/4
f 193/1/4 194/1/4 196/1/4
f 192/1/4 190/1/4 197/1/4
f 197/1/4 190/1/4 198/1/4
f 195/1/4 196/1/4 199/1/4
f 196/1/4 194/1/4 200/1/4
f 199/1/4 196/1/4 200/1/4
f 200/1/4 194/1/4 203/1/4
f 203/1/4 194/1/4 204/1/4
f 201/1/4 202/1/4 206/1/4
f 205/1/4 206/1/4 207/1/4
f 206/1/4 202/1/4 208/1/4
f 207/1/4 206/1/4 208/1/4
f 209/1/4 210/1/4 212/1/4
f 212/1/4 210/1/4 213/1/4
f 211/1/4 212/1/4 213/1/4
f 213/1/4 210/1/4 214/1/4
f 211/1/4 213/1/4 215/1/4
f 215/1/4 213/1/4 216/1/4
f 217/1/4 218/1/4 219/1/4
f 214/1/4 210/1/4 220/1/4
f 217/1/4 219/1/4 221/1/4
f 219/1/4 220/1/4 221/1/4
f 221/1/4 220/1/4 222/1/4
f 222/1/4 220/1/4 223/1/4
f 220/1/4 210/1/4 224/1/4
f 223/1/4 220/1/4 224/1/4
f 225/1/4 226/1/4 228/1/4
f 227/1/4 228/1/4 229/1/4
f 228/1/4 226/1/4 230/1/4
f 229/1/4 228/1/4 230/1/4
f 230/1/4 226/1/4 231/1/4
f 231/1/4 226/1/4 232/1/4
f 235/1/5 234/1/5 233/1/5
f 236/1/5 234/1/5 235/1/5
f 241/1/5 238/1/5 237/1/5
f 242/1/5 238/1/5 241/1/5
f 243/1/5 240/1/5 239/1/5
f 244/1/5 240/1/5 243/1/5
f 248/1/5 246/1/5 245/1/5
f 249/1/5 246/1/5 248/1/5
f 251/1/5 248/1/5 247/1/5
f 251/1/5 250/1/5 249/1/5
f 251/1/5 249/1/5 248/1/5
f 252/1/5 250/1/5 251/1/5
f 253/1/5 251/1/5 247/1/5
f 254/1/5 250/1/5 252/1/5
f 255/1/5 253/1/5 247/1/5
f 255/1/5 254/1/5 253/1/5
f 256/1/5 254/1/5 255/1/5
f 257/1/5 254/1/5 256/1/5
f 258/1/5 250/1/5 254/1/5
f 258/1/5 254/1/5 257/1/5
f 259/1/5 257/1/5 256/1/5
f 260/1/5 257/1/5 259/1/5
f 267/1/5 262/1/5 261/1/5
f 268/1/5 262/1/5 267/1/5
f 269/1/5 264/1/5 263/1/5
f 270/1/5 264/1/5 269/1/5
f 273/1/5 266/1/5 265/1/5
f 274/1/5 266/1/5 273/1/5
f 279/1/5 272/1/5 271/1/5
f 280/1/5 272/1/5 279/1/5
f 281/1/5 276/1/5 275/1/5
f 282/1/5 276/1/5 281/1/5
f 283/1/5 278/1/5 277/1/5
f 284/1/5 278/1/5 283/1/5
f 289/1/5 286/1/5 285/1/5
f 290/1/5 286/1/5 289/1/5
f 291/1/5 288/1/5 287/1/5
f 292/1/5 288/1/5 291/1/5
f 297/1/5 294/1/5 293/1/5
f 298/1/5 294/1/5 297/1/5
f 299/1/5 296/1/5 295/1/5
f 300/1/5 296/1/5 299/1/5
f 301/1/6 302/1/6 303/1/6
f 303/1/6 302/1/6 304/1/6
f 305/1/6 306/1/6 307/1/6
f 307/1/6 306/1/6 308/1/6
f 309/1/6 310/1/6 311/1/6
f 311/1/6 310/1/6 312/1/6
f 312/1/6 310/1/6 313/1/6
f 313/1/6 310/1/6 314/1/6
f 312/1/6 313/1/6 316/1/6
f 316/1/6 313/1/6 317/1/6
f 315/1/6 316/1/6 319/1/6
f 317/1/6 318/1/6 319/1/6
f 316/1/6 317/1/6 319/1/6
f 319/1/6 318/1/6 320/1/6
f 321/1/6 322/1/6 326/1/6
f 326/1/6 322/1/6 327/1/6
f 323/1/6 324/1/6 328/1/6
f 328/1/6 324/1/6 329/1/6
f 325/1/6 326/1/6 331/1/6
f 331/1/6 326/1/6 332/1/6
f 327/1/6 322/1/6 333/1/6
f 323/1/6 328/1/6 334/1/6
f 329/1/6 330/1/6 335/1/6
f 335/1/6 330/1/6 336/1/6
f 332/1/6 333/1/6 337/1/6
f 333/1/6 322/1/6 338/1/6
f 337/1/6 333/1/6 338/1/6
f 323/1/6 334/1/6 339/1/6
f 334/1/6 335/1/6 339/1/6
f 339/1/6 335/1/6 340/1/6
f 341/1/6 342/1/6 345/1/6
f 345/1/6 342/1/6 346/1/6
f 343/1/6 344/1/6 347/1/6
f 347/1/6 344/1/6 348/1/6
