# MagicaVoxel @ Ephtracy

# group
g hippe

# material
mtllib hippe.mtl
usemtl palette

# normals
vn -1 0 0
vn 1 0 0
vn 0 0 1
vn 0 0 -1
vn 0 -1 0
vn 0 1 0

# texcoords
vt 0.0371094 0.5
vt 0.201172 0.5
vt 0.357422 0.5
vt 0.361328 0.5
vt 0.373047 0.5
vt 0.955078 0.5

# verts
v -7 14 1
v -7 14 -2
v -7 15 1
v -7 15 -2
v -6 6 -0
v -6 6 -1
v -6 14 -0
v -6 14 -1
v -6 15 1
v -6 15 -2
v -6 16 2
v -6 16 1
v -6 18 2
v -6 18 -2
v -5 0 -0
v -5 0 -1
v -5 1 -0
v -5 1 -1
v -5 5 -0
v -5 5 -1
v -5 6 1
v -5 6 -0
v -5 6 -1
v -5 14 2
v -5 14 1
v -5 14 -0
v -5 15 2
v -5 15 1
v -5 16 2
v -5 16 1
v -5 18 1
v -5 18 -1
v -5 19 1
v -5 19 -1
v -4 6 -1
v -4 6 -2
v -4 14 -1
v -4 14 -2
v -2 0 -0
v -2 0 -1
v -2 1 -0
v -2 1 -1
v -2 5 -0
v -2 5 -1
v -4 0 -0
v -4 0 -1
v -4 1 -0
v -4 1 -1
v -4 5 -0
v -4 5 -1
v -1 0 -0
v -1 0 -1
v -1 1 -0
v -1 1 -1
v -1 5 -0
v -1 5 -1
v -1 6 1
v -1 6 -0
v -1 6 -1
v -1 6 -2
v -1 14 2
v -1 14 1
v -1 14 -0
v -1 14 -1
v -1 14 -2
v -1 15 2
v -1 15 1
v -1 16 2
v -1 16 1
v -1 18 1
v -1 18 -1
v -1 19 1
v -1 19 -1
v 0 6 -0
v 0 6 -1
v 0 14 -0
v 0 14 -1
v 0 15 1
v 0 15 -2
v 0 16 2
v 0 16 1
v 0 18 2
v 0 18 -2
v 1 14 1
v 1 14 -2
v 1 15 1
v 1 15 -2
v -6 16 2
v -6 18 2
v -5 14 2
v -5 15 2
v -5 16 2
v -5 17 2
v -4 15 2
v -4 17 2
v -2 15 2
v -2 17 2
v -1 14 2
v -1 15 2
v -1 16 2
v -1 17 2
v 0 16 2
v 0 18 2
v -7 14 1
v -7 15 1
v -6 15 1
v -6 16 1
v -5 6 1
v -5 14 1
v -5 15 1
v -5 16 1
v -5 18 1
v -5 19 1
v -1 6 1
v -1 14 1
v -1 15 1
v -1 16 1
v -1 18 1
v -1 19 1
v 0 15 1
v 0 16 1
v 1 14 1
v 1 15 1
v -6 6 -0
v -6 14 -0
v -5 0 -0
v -5 1 -0
v -5 5 -0
v -5 6 -0
v -5 14 -0
v -4 0 -0
v -4 1 -0
v -4 5 -0
v -2 0 -0
v -2 1 -0
v -2 5 -0
v -1 0 -0
v -1 1 -0
v -1 5 -0
v -1 6 -0
v -1 14 -0
v 0 6 -0
v 0 14 -0
v -6 6 -1
v -6 14 -1
v -5 0 -1
v -5 1 -1
v -5 5 -1
v -5 6 -1
v -5 14 -1
v -5 18 -1
v -5 19 -1
v -4 0 -1
v -4 1 -1
v -4 5 -1
v -4 6 -1
v -4 14 -1
v -2 0 -1
v -2 1 -1
v -2 5 -1
v -1 0 -1
v -1 1 -1
v -1 5 -1
v -1 6 -1
v -1 14 -1
v -1 18 -1
v -1 19 -1
v 0 6 -1
v 0 14 -1
v -7 14 -2
v -7 15 -2
v -6 15 -2
v -6 18 -2
v -4 6 -2
v -4 14 -2
v -1 6 -2
v -1 14 -2
v 0 15 -2
v 0 18 -2
v 1 14 -2
v 1 15 -2
v -5 0 -0
v -4 0 -0
v -2 0 -0
v -1 0 -0
v -5 0 -1
v -4 0 -1
v -2 0 -1
v -1 0 -1
v -4 5 -0
v -2 5 -0
v -4 5 -1
v -2 5 -1
v -5 6 1
v -1 6 1
v -6 6 -0
v -5 6 -0
v -1 6 -0
v 0 6 -0
v -6 6 -1
v -5 6 -1
v -4 6 -1
v -1 6 -1
v 0 6 -1
v -4 6 -2
v -1 6 -2
v -5 14 2
v -1 14 2
v -7 14 1
v -5 14 1
v -1 14 1
v 1 14 1
v -6 14 -0
v -5 14 -0
v -1 14 -0
v 0 14 -0
v -6 14 -1
v -5 14 -1
v -4 14 -1
v -1 14 -1
v 0 14 -1
v -7 14 -2
v -4 14 -2
v -1 14 -2
v 1 14 -2
v -6 16 2
v -5 16 2
v -1 16 2
v 0 16 2
v -6 16 1
v -5 16 1
v -1 16 1
v 0 16 1
v -7 15 1
v -6 15 1
v 0 15 1
v 1 15 1
v -7 15 -2
v -6 15 -2
v 0 15 -2
v 1 15 -2
v -6 18 2
v 0 18 2
v -5 18 1
v -1 18 1
v -5 18 -1
v -1 18 -1
v -6 18 -2
v 0 18 -2
v -5 19 1
v -1 19 1
v -5 19 -1
v -1 19 -1

# faces
f 3/5/1 2/5/1 1/5/1
f 4/5/1 2/5/1 3/5/1
f 7/2/1 6/2/1 5/2/1
f 8/2/1 6/2/1 7/2/1
f 12/5/1 10/5/1 9/5/1
f 13/5/1 12/5/1 11/5/1
f 14/5/1 10/5/1 12/5/1
f 14/5/1 12/5/1 13/5/1
f 17/2/1 16/2/1 15/2/1
f 18/2/1 16/2/1 17/2/1
f 19/3/1 18/3/1 17/3/1
f 20/3/1 18/3/1 19/3/1
f 22/4/1 20/4/1 19/4/1
f 23/4/1 20/4/1 22/4/1
f 25/1/1 22/1/1 21/1/1
f 26/1/1 22/1/1 25/1/1
f 27/1/1 25/1/1 24/1/1
f 28/1/1 25/1/1 27/1/1
f 29/6/1 28/6/1 27/6/1
f 30/6/1 28/6/1 29/6/1
f 33/5/1 32/5/1 31/5/1
f 34/5/1 32/5/1 33/5/1
f 37/1/1 36/1/1 35/1/1
f 38/1/1 36/1/1 37/1/1
f 41/2/1 40/2/1 39/2/1
f 42/2/1 40/2/1 41/2/1
f 43/3/1 42/3/1 41/3/1
f 44/3/1 42/3/1 43/3/1
f 45/2/2 46/2/2 47/2/2
f 47/2/2 46/2/2 48/2/2
f 47/3/2 48/3/2 49/3/2
f 49/3/2 48/3/2 50/3/2
f 51/2/2 52/2/2 53/2/2
f 53/2/2 52/2/2 54/2/2
f 53/3/2 54/3/2 55/3/2
f 55/3/2 54/3/2 56/3/2
f 55/4/2 56/4/2 58/4/2
f 58/4/2 56/4/2 59/4/2
f 57/1/2 58/1/2 62/1/2
f 62/1/2 58/1/2 63/1/2
f 59/1/2 60/1/2 64/1/2
f 64/1/2 60/1/2 65/1/2
f 61/1/2 62/1/2 66/1/2
f 66/1/2 62/1/2 67/1/2
f 66/6/2 67/6/2 68/6/2
f 68/6/2 67/6/2 69/6/2
f 70/5/2 71/5/2 72/5/2
f 72/5/2 71/5/2 73/5/2
f 74/2/2 75/2/2 76/2/2
f 76/2/2 75/2/2 77/2/2
f 78/5/2 79/5/2 81/5/2
f 80/5/2 81/5/2 82/5/2
f 81/5/2 79/5/2 83/5/2
f 82/5/2 81/5/2 83/5/2
f 84/5/2 85/5/2 86/5/2
f 86/5/2 85/5/2 87/5/2
f 92/5/3 89/5/3 88/5/3
f 93/5/3 89/5/3 92/5/3
f 94/1/3 91/1/3 90/1/3
f 94/6/3 92/6/3 91/6/3
f 94/6/3 93/6/3 92/6/3
f 95/5/3 89/5/3 93/5/3
f 95/6/3 93/6/3 94/6/3
f 96/1/3 94/1/3 90/1/3
f 96/1/3 95/1/3 94/1/3
f 97/5/3 89/5/3 95/5/3
f 97/1/3 95/1/3 96/1/3
f 98/1/3 96/1/3 90/1/3
f 99/6/3 97/6/3 96/6/3
f 99/1/3 96/1/3 98/1/3
f 100/6/3 97/6/3 99/6/3
f 101/5/3 89/5/3 97/5/3
f 101/6/3 97/6/3 100/6/3
f 102/5/3 101/5/3 100/5/3
f 103/5/3 89/5/3 101/5/3
f 103/5/3 101/5/3 102/5/3
f 106/5/3 105/5/3 104/5/3
f 109/5/3 106/5/3 104/5/3
f 109/5/3 107/5/3 106/5/3
f 110/5/3 107/5/3 109/5/3
f 111/5/3 107/5/3 110/5/3
f 114/1/3 109/1/3 108/1/3
f 115/1/3 109/1/3 114/1/3
f 118/5/3 113/5/3 112/5/3
f 119/5/3 113/5/3 118/5/3
f 120/5/3 117/5/3 116/5/3
f 120/5/3 116/5/3 115/5/3
f 121/5/3 117/5/3 120/5/3
f 122/5/3 120/5/3 115/5/3
f 123/5/3 120/5/3 122/5/3
f 129/2/3 125/2/3 124/2/3
f 130/2/3 125/2/3 129/2/3
f 131/2/3 127/2/3 126/2/3
f 132/3/3 128/3/3 127/3/3
f 132/2/3 127/2/3 131/2/3
f 133/4/3 129/4/3 128/4/3
f 133/3/3 128/3/3 132/3/3
f 136/4/3 129/4/3 133/4/3
f 137/2/3 135/2/3 134/2/3
f 138/3/3 136/3/3 135/3/3
f 138/2/3 135/2/3 137/2/3
f 139/4/3 129/4/3 136/4/3
f 139/3/3 136/3/3 138/3/3
f 140/4/3 129/4/3 139/4/3
f 142/2/3 141/2/3 140/2/3
f 143/2/3 141/2/3 142/2/3
f 144/2/4 145/2/4 149/2/4
f 149/2/4 145/2/4 150/2/4
f 146/2/4 147/2/4 153/2/4
f 147/3/4 148/3/4 154/3/4
f 153/2/4 147/2/4 154/2/4
f 148/4/4 149/4/4 155/4/4
f 154/3/4 148/3/4 155/3/4
f 149/1/4 150/1/4 156/1/4
f 155/4/4 149/4/4 156/4/4
f 156/1/4 150/1/4 157/1/4
f 155/4/4 156/4/4 160/4/4
f 158/2/4 159/2/4 161/2/4
f 159/3/4 160/3/4 162/3/4
f 161/2/4 159/2/4 162/2/4
f 160/4/4 156/4/4 163/4/4
f 162/3/4 160/3/4 163/3/4
f 163/4/4 156/4/4 164/4/4
f 151/5/4 152/5/4 166/5/4
f 166/5/4 152/5/4 167/5/4
f 164/2/4 165/2/4 168/2/4
f 168/2/4 165/2/4 169/2/4
f 170/5/4 171/5/4 172/5/4
f 170/5/4 172/5/4 175/5/4
f 172/5/4 173/5/4 175/5/4
f 174/1/4 175/1/4 176/1/4
f 175/5/4 173/5/4 177/5/4
f 176/1/4 175/1/4 177/1/4
f 177/5/4 173/5/4 178/5/4
f 178/5/4 173/5/4 179/5/4
f 177/5/4 178/5/4 180/5/4
f 180/5/4 178/5/4 181/5/4
f 186/2/5 183/2/5 182/2/5
f 187/2/5 183/2/5 186/2/5
f 188/2/5 185/2/5 184/2/5
f 189/2/5 185/2/5 188/2/5
f 192/4/5 191/4/5 190/4/5
f 193/4/5 191/4/5 192/4/5
f 197/1/5 195/1/5 194/1/5
f 198/1/5 195/1/5 197/1/5
f 200/2/5 197/2/5 196/2/5
f 201/2/5 197/2/5 200/2/5
f 203/2/5 199/2/5 198/2/5
f 204/2/5 199/2/5 203/2/5
f 205/1/5 203/1/5 202/1/5
f 206/1/5 203/1/5 205/1/5
f 210/1/5 208/1/5 207/1/5
f 211/1/5 208/1/5 210/1/5
f 213/5/5 210/5/5 209/5/5
f 214/5/5 210/5/5 213/5/5
f 215/5/5 212/5/5 211/5/5
f 216/5/5 212/5/5 215/5/5
f 217/5/5 213/5/5 209/5/5
f 221/5/5 212/5/5 216/5/5
f 222/5/5 219/5/5 218/5/5
f 222/5/5 217/5/5 209/5/5
f 222/5/5 218/5/5 217/5/5
f 223/5/5 219/5/5 222/5/5
f 224/5/5 221/5/5 220/5/5
f 225/5/5 212/5/5 221/5/5
f 225/5/5 221/5/5 224/5/5
f 230/5/5 227/5/5 226/5/5
f 231/5/5 227/5/5 230/5/5
f 232/5/5 229/5/5 228/5/5
f 233/5/5 229/5/5 232/5/5
f 234/5/6 235/5/6 238/5/6
f 238/5/6 235/5/6 239/5/6
f 236/5/6 237/5/6 240/5/6
f 240/5/6 237/5/6 241/5/6
f 242/5/6 243/5/6 244/5/6
f 244/5/6 243/5/6 245/5/6
f 242/5/6 244/5/6 246/5/6
f 245/5/6 243/5/6 247/5/6
f 242/5/6 246/5/6 248/5/6
f 246/5/6 247/5/6 248/5/6
f 247/5/6 243/5/6 249/5/6
f 248/5/6 247/5/6 249/5/6
f 250/5/6 251/5/6 252/5/6
f 252/5/6 251/5/6 253/5/6
