# MagicaVoxel @ Ephtracy

# group
g main character-2

# material
mtllib main character-2.mtl
usemtl palette

# normals
vn -1 0 0
vn 1 0 0
vn 0 0 1
vn 0 0 -1
vn 0 -1 0
vn 0 1 0

# texcoords
vt 0.0332031 0.5
vt 0.0488281 0.5
vt 0.103516 0.5
vt 0.201172 0.5
vt 0.365234 0.5
vt 0.369141 0.5
vt 0.619141 0.5
vt 0.646484 0.5
vt 0.845703 0.5
vt 0.994141 0.5

# verts
v -9 11 4
v -9 11 1
v -9 12 4
v -9 12 1
v -7 13 5
v -7 13 1
v -7 14 4
v -7 14 2
v -7 15 5
v -7 15 4
v -7 15 2
v -7 15 1
v -6 11 4
v -6 11 3
v -6 11 2
v -6 11 1
v -6 12 4
v -6 12 3
v -6 12 2
v -6 12 1
v -6 13 1
v -6 13 -1
v -6 14 4
v -6 14 3
v -6 14 2
v -6 15 5
v -6 15 4
v -6 15 2
v -6 15 1
v -6 16 5
v -6 16 3
v -6 16 1
v -6 16 -1
v -5 13 -1
v -5 13 -2
v -5 14 -1
v -5 14 -2
v -5 15 -1
v -5 15 -2
v -5 16 5
v -5 16 3
v -5 16 1
v -5 16 -0
v -5 17 5
v -5 17 4
v -5 17 3
v -5 17 1
v -5 17 -0
v -5 18 4
v -5 18 -0
v -4 3 4
v -4 3 1
v -4 4 4
v -4 4 3
v -4 4 2
v -4 4 1
v -4 5 4
v -4 5 3
v -4 5 2
v -4 5 1
v -4 6 4
v -4 6 1
v -4 8 4
v -4 8 3
v -4 8 2
v -4 8 1
v -4 9 4
v -4 9 3
v -4 9 2
v -4 9 1
v -4 10 4
v -4 10 1
v -4 11 4
v -4 11 3
v -4 11 2
v -4 11 1
v -4 12 4
v -4 12 3
v -4 12 2
v -4 12 1
v -4 18 4
v -4 18 3
v -4 18 1
v -4 18 -0
v -4 19 4
v -4 19 3
v -4 19 1
v -4 19 -0
v -3 12 3
v -3 12 1
v -3 13 3
v -3 13 1
v -3 18 3
v -3 18 1
v -3 19 3
v -3 19 1
v -1 3 4
v -1 3 1
v -1 4 4
v -1 4 3
v -1 4 2
v -1 4 1
v -1 5 4
v -1 5 3
v -1 5 2
v -1 5 1
v -1 6 4
v -1 6 1
v 0 17 5
v 0 17 4
v 0 18 5
v 0 18 4
v 1 11 4
v 1 11 3
v 1 11 2
v 1 11 1
v 1 12 4
v 1 12 3
v 1 12 2
v 1 12 1
v 1 13 6
v 1 13 5
v 1 14 6
v 1 14 5
v 2 14 6
v 2 14 5
v 2 15 6
v 2 15 5
v 3 11 4
v 3 11 3
v 3 11 2
v 3 11 1
v 3 12 4
v 3 12 3
v 3 12 2
v 3 12 1
v -7 11 4
v -7 11 3
v -7 11 2
v -7 11 1
v -7 12 4
v -7 12 3
v -7 12 2
v -7 12 1
v -5 11 4
v -5 11 3
v -5 11 2
v -5 11 1
v -5 12 4
v -5 12 3
v -5 12 2
v -5 12 1
v -3 3 4
v -3 3 1
v -3 4 4
v -3 4 3
v -3 4 2
v -3 4 1
v -3 5 4
v -3 5 3
v -3 5 2
v -3 5 1
v -3 6 4
v -3 6 1
v -1 12 3
v -1 12 1
v -1 13 3
v -1 13 1
v 0 3 4
v 0 3 1
v 0 4 4
v 0 4 3
v 0 4 2
v 0 4 1
v 0 5 4
v 0 5 3
v 0 5 2
v 0 5 1
v 0 6 4
v 0 6 1
v 0 8 4
v 0 8 3
v 0 8 2
v 0 8 1
v 0 9 4
v 0 9 3
v 0 9 2
v 0 9 1
v 0 10 4
v 0 10 1
v 0 11 4
v 0 11 3
v 0 11 2
v 0 11 1
v 0 12 4
v 0 12 3
v 0 12 2
v 0 12 1
v 0 18 4
v 0 18 -0
v 0 19 4
v 0 19 -0
v 1 13 -1
v 1 13 -2
v 1 14 -1
v 1 14 -2
v 1 15 3
v 1 15 1
v 1 15 -1
v 1 15 -2
v 1 16 3
v 1 16 1
v 2 11 4
v 2 11 3
v 2 11 2
v 2 11 1
v 2 12 4
v 2 12 3
v 2 12 2
v 2 12 1
v 2 15 5
v 2 15 3
v 2 15 1
v 2 15 -1
v 2 16 5
v 2 16 3
v 2 16 1
v 2 16 -0
v 2 16 -1
v 3 13 6
v 3 13 -1
v 3 15 6
v 3 15 -1
v 3 16 5
v 3 16 -0
v 3 18 5
v 3 18 -0
v 5 11 4
v 5 11 1
v 5 12 4
v 5 12 1
v 1 13 6
v 1 14 6
v 2 14 6
v 2 15 6
v 3 13 6
v 3 15 6
v -7 13 5
v -7 15 5
v -6 15 5
v -6 16 5
v -5 13 5
v -5 15 5
v -5 16 5
v -5 17 5
v -4 14 5
v -4 15 5
v -4 16 5
v -3 14 5
v -3 16 5
v -1 14 5
v -1 16 5
v 0 14 5
v 0 15 5
v 0 16 5
v 0 17 5
v 0 18 5
v 1 13 5
v 1 14 5
v 1 15 5
v 1 16 5
v 2 14 5
v 2 15 5
v 2 16 5
v 3 16 5
v 3 18 5
v -9 11 4
v -9 12 4
v -7 11 4
v -7 12 4
v -6 11 4
v -6 12 4
v -5 11 4
v -5 12 4
v -5 17 4
v -5 18 4
v -4 3 4
v -4 4 4
v -4 5 4
v -4 6 4
v -4 8 4
v -4 9 4
v -4 10 4
v -4 11 4
v -4 12 4
v -4 18 4
v -4 19 4
v -3 3 4
v -3 4 4
v -3 5 4
v -3 6 4
v -3 10 4
v -3 11 4
v -3 12 4
v -3 17 4
v -3 18 4
v -3 19 4
v -2 17 4
v -2 18 4
v -1 3 4
v -1 4 4
v -1 5 4
v -1 6 4
v -1 10 4
v -1 11 4
v -1 12 4
v 0 3 4
v 0 4 4
v 0 5 4
v 0 6 4
v 0 8 4
v 0 9 4
v 0 10 4
v 0 11 4
v 0 12 4
v 0 17 4
v 0 18 4
v 0 19 4
v 1 11 4
v 1 12 4
v 2 11 4
v 2 12 4
v 3 11 4
v 3 12 4
v 5 11 4
v 5 12 4
v -7 11 3
v -7 12 3
v -6 11 3
v -6 12 3
v -5 11 3
v -5 12 3
v -4 4 3
v -4 5 3
v -4 8 3
v -4 9 3
v -4 11 3
v -4 12 3
v -3 4 3
v -3 5 3
v -3 12 3
v -3 13 3
v -1 4 3
v -1 5 3
v -1 12 3
v -1 13 3
v 0 4 3
v 0 5 3
v 0 8 3
v 0 9 3
v 0 11 3
v 0 12 3
v 1 11 3
v 1 12 3
v 2 11 3
v 2 12 3
v 3 11 3
v 3 12 3
v -7 14 2
v -7 15 2
v -6 14 2
v -6 15 2
v -4 18 1
v -4 19 1
v -3 18 1
v -3 19 1
v 1 15 1
v 1 16 1
v 2 15 1
v 2 16 1
v -7 14 4
v -7 15 4
v -6 14 4
v -6 15 4
v -4 18 3
v -4 19 3
v -3 18 3
v -3 19 3
v 1 15 3
v 1 16 3
v 2 15 3
v 2 16 3
v -7 11 2
v -7 12 2
v -6 11 2
v -6 12 2
v -5 11 2
v -5 12 2
v -4 4 2
v -4 5 2
v -4 8 2
v -4 9 2
v -4 11 2
v -4 12 2
v -3 4 2
v -3 5 2
v -1 4 2
v -1 5 2
v 0 4 2
v 0 5 2
v 0 8 2
v 0 9 2
v 0 11 2
v 0 12 2
v 1 11 2
v 1 12 2
v 2 11 2
v 2 12 2
v 3 11 2
v 3 12 2
v -9 11 1
v -9 12 1
v -7 11 1
v -7 12 1
v -7 13 1
v -7 15 1
v -6 11 1
v -6 12 1
v -6 13 1
v -6 15 1
v -5 11 1
v -5 12 1
v -4 3 1
v -4 4 1
v -4 5 1
v -4 6 1
v -4 8 1
v -4 9 1
v -4 10 1
v -4 11 1
v -4 12 1
v -3 3 1
v -3 4 1
v -3 5 1
v -3 6 1
v -3 10 1
v -3 11 1
v -3 12 1
v -3 13 1
v -1 3 1
v -1 4 1
v -1 5 1
v -1 6 1
v -1 10 1
v -1 11 1
v -1 12 1
v -1 13 1
v 0 3 1
v 0 4 1
v 0 5 1
v 0 6 1
v 0 8 1
v 0 9 1
v 0 10 1
v 0 11 1
v 0 12 1
v 1 11 1
v 1 12 1
v 2 11 1
v 2 12 1
v 3 11 1
v 3 12 1
v 5 11 1
v 5 12 1
v -5 16 -0
v -5 17 -0
v -5 18 -0
v -4 18 -0
v -4 19 -0
v -3 17 -0
v -3 18 -0
v -3 19 -0
v -2 17 -0
v -2 18 -0
v 0 16 -0
v 0 17 -0
v 0 18 -0
v 0 19 -0
v 1 16 -0
v 2 16 -0
v 3 16 -0
v 3 18 -0
v -6 13 -1
v -6 16 -1
v -5 13 -1
v -5 14 -1
v -5 15 -1
v 1 13 -1
v 1 14 -1
v 1 15 -1
v 1 16 -1
v 2 15 -1
v 2 16 -1
v 3 13 -1
v 3 15 -1
v -5 13 -2
v -5 14 -2
v -5 15 -2
v 1 13 -2
v 1 14 -2
v 1 15 -2
v -4 3 4
v -3 3 4
v -1 3 4
v 0 3 4
v -4 3 1
v -3 3 1
v -1 3 1
v 0 3 1
v -4 5 4
v -3 5 4
v -1 5 4
v 0 5 4
v -4 5 3
v -3 5 3
v -1 5 3
v 0 5 3
v -4 5 2
v -3 5 2
v -1 5 2
v 0 5 2
v -4 5 1
v -3 5 1
v -1 5 1
v 0 5 1
v -3 6 4
v -1 6 4
v -3 6 1
v -1 6 1
v -4 9 4
v 0 9 4
v -4 9 3
v 0 9 3
v -4 9 2
v 0 9 2
v -4 9 1
v 0 9 1
v -9 11 4
v -7 11 4
v -6 11 4
v -5 11 4
v 1 11 4
v 2 11 4
v 3 11 4
v 5 11 4
v -7 11 3
v -6 11 3
v -5 11 3
v -4 11 3
v 0 11 3
v 1 11 3
v 2 11 3
v 3 11 3
v -7 11 2
v -6 11 2
v -5 11 2
v -4 11 2
v 0 11 2
v 1 11 2
v 2 11 2
v 3 11 2
v -9 11 1
v -7 11 1
v -6 11 1
v -5 11 1
v 1 11 1
v 2 11 1
v 3 11 1
v 5 11 1
v 1 13 6
v 3 13 6
v -7 13 5
v -5 13 5
v 1 13 5
v -6 13 3
v -5 13 3
v -3 13 3
v -1 13 3
v 1 13 3
v -7 13 1
v -6 13 1
v -4 13 1
v -3 13 1
v -1 13 1
v 0 13 1
v 1 13 1
v -3 13 -0
v -1 13 -0
v -6 13 -1
v -5 13 -1
v -4 13 -1
v 0 13 -1
v 1 13 -1
v 3 13 -1
v -5 13 -2
v 1 13 -2
v 2 16 5
v 3 16 5
v 1 16 3
v 2 16 3
v 1 16 1
v 2 16 1
v 2 16 -0
v 3 16 -0
v -4 4 4
v -3 4 4
v -1 4 4
v 0 4 4
v -4 4 3
v -3 4 3
v -1 4 3
v 0 4 3
v -4 4 2
v -3 4 2
v -1 4 2
v 0 4 2
v -4 4 1
v -3 4 1
v -1 4 1
v 0 4 1
v -4 8 4
v 0 8 4
v -4 8 3
v 0 8 3
v -4 8 2
v 0 8 2
v -4 8 1
v 0 8 1
v -9 12 4
v -7 12 4
v -6 12 4
v -5 12 4
v -4 12 4
v -3 12 4
v -1 12 4
v 0 12 4
v 1 12 4
v 2 12 4
v 3 12 4
v 5 12 4
v -7 12 3
v -6 12 3
v -5 12 3
v -4 12 3
v -3 12 3
v -1 12 3
v 0 12 3
v 1 12 3
v 2 12 3
v 3 12 3
v -7 12 2
v -6 12 2
v -5 12 2
v -4 12 2
v 0 12 2
v 1 12 2
v 2 12 2
v 3 12 2
v -9 12 1
v -7 12 1
v -6 12 1
v -5 12 1
v -4 12 1
v -3 12 1
v -1 12 1
v 0 12 1
v 1 12 1
v 2 12 1
v 3 12 1
v 5 12 1
v 1 14 6
v 2 14 6
v 1 14 5
v 2 14 5
v -7 14 4
v -6 14 4
v -6 14 3
v -7 14 2
v -6 14 2
v 2 15 6
v 3 15 6
v -7 15 5
v -6 15 5
v 2 15 5
v -7 15 4
v -6 15 4
v 1 15 3
v 2 15 3
v -7 15 2
v -6 15 2
v -7 15 1
v -6 15 1
v 1 15 1
v 2 15 1
v -5 15 -1
v 1 15 -1
v 2 15 -1
v 3 15 -1
v -5 15 -2
v 1 15 -2
v -6 16 5
v -5 16 5
v -6 16 3
v -5 16 3
v -6 16 1
v -5 16 1
v -5 16 -0
v 0 16 -0
v 1 16 -0
v 2 16 -0
v -6 16 -1
v 1 16 -1
v 2 16 -1
v -5 17 5
v 0 17 5
v -5 17 4
v -3 17 4
v -2 17 4
v 0 17 4
v 0 18 5
v 3 18 5
v -5 18 4
v -4 18 4
v 0 18 4
v -4 18 3
v -3 18 3
v -4 18 1
v -3 18 1
v -5 18 -0
v -4 18 -0
v 0 18 -0
v 3 18 -0
v -4 19 4
v -3 19 4
v 0 19 4
v -4 19 3
v -3 19 3
v -4 19 1
v -3 19 1
v -4 19 -0
v -3 19 -0
v 0 19 -0

# faces
f 3/1/1 2/1/1 1/1/1
f 4/1/1 2/1/1 3/1/1
f 7/5/1 6/5/1 5/5/1
f 8/5/1 6/5/1 7/5/1
f 9/5/1 7/5/1 5/5/1
f 10/5/1 7/5/1 9/5/1
f 11/5/1 6/5/1 8/5/1
f 12/5/1 6/5/1 11/5/1
f 17/4/1 14/4/1 13/4/1
f 18/4/1 14/4/1 17/4/1
f 19/4/1 16/4/1 15/4/1
f 20/4/1 16/4/1 19/4/1
f 27/5/1 24/5/1 23/5/1
f 28/6/1 25/6/1 24/6/1
f 29/5/1 22/5/1 21/5/1
f 30/5/1 27/5/1 26/5/1
f 31/6/1 28/6/1 24/6/1
f 31/5/1 27/5/1 30/5/1
f 31/6/1 29/6/1 28/6/1
f 31/5/1 24/5/1 27/5/1
f 32/5/1 22/5/1 29/5/1
f 32/6/1 29/6/1 31/6/1
f 33/5/1 22/5/1 32/5/1
f 36/6/1 35/6/1 34/6/1
f 37/6/1 35/6/1 36/6/1
f 38/5/1 37/5/1 36/5/1
f 39/5/1 37/5/1 38/5/1
f 44/7/1 41/7/1 40/7/1
f 45/7/1 41/7/1 44/7/1
f 46/6/1 42/6/1 41/6/1
f 46/7/1 41/7/1 45/7/1
f 47/7/1 43/7/1 42/7/1
f 47/6/1 42/6/1 46/6/1
f 48/7/1 43/7/1 47/7/1
f 49/6/1 46/6/1 45/6/1
f 49/6/1 48/6/1 47/6/1
f 49/6/1 47/6/1 46/6/1
f 50/6/1 48/6/1 49/6/1
f 53/7/1 52/7/1 51/7/1
f 54/7/1 52/7/1 53/7/1
f 55/7/1 52/7/1 54/7/1
f 56/7/1 52/7/1 55/7/1
f 58/7/1 55/7/1 54/7/1
f 59/7/1 55/7/1 58/7/1
f 61/8/1 58/8/1 57/8/1
f 61/8/1 60/8/1 59/8/1
f 61/8/1 59/8/1 58/8/1
f 62/8/1 60/8/1 61/8/1
f 63/7/1 62/7/1 61/7/1
f 64/7/1 62/7/1 63/7/1
f 65/7/1 62/7/1 64/7/1
f 66/7/1 62/7/1 65/7/1
f 68/1/1 65/1/1 64/1/1
f 69/1/1 65/1/1 68/1/1
f 71/4/1 68/4/1 67/4/1
f 71/4/1 70/4/1 69/4/1
f 71/4/1 69/4/1 68/4/1
f 72/4/1 70/4/1 71/4/1
f 73/3/1 72/3/1 71/3/1
f 74/3/1 72/3/1 73/3/1
f 75/3/1 72/3/1 74/3/1
f 76/3/1 72/3/1 75/3/1
f 77/2/1 74/2/1 73/2/1
f 78/2/1 74/2/1 77/2/1
f 79/2/1 76/2/1 75/2/1
f 80/2/1 76/2/1 79/2/1
f 85/5/1 82/5/1 81/5/1
f 86/5/1 82/5/1 85/5/1
f 87/5/1 84/5/1 83/5/1
f 88/5/1 84/5/1 87/5/1
f 91/1/1 90/1/1 89/1/1
f 92/1/1 90/1/1 91/1/1
f 95/6/1 94/6/1 93/6/1
f 96/6/1 94/6/1 95/6/1
f 99/7/1 98/7/1 97/7/1
f 100/7/1 98/7/1 99/7/1
f 101/7/1 98/7/1 100/7/1
f 102/7/1 98/7/1 101/7/1
f 104/7/1 101/7/1 100/7/1
f 105/7/1 101/7/1 104/7/1
f 107/8/1 104/8/1 103/8/1
f 107/8/1 106/8/1 105/8/1
f 107/8/1 105/8/1 104/8/1
f 108/8/1 106/8/1 107/8/1
f 111/9/1 110/9/1 109/9/1
f 112/9/1 110/9/1 111/9/1
f 117/4/1 114/4/1 113/4/1
f 118/4/1 114/4/1 117/4/1
f 119/4/1 116/4/1 115/4/1
f 120/4/1 116/4/1 119/4/1
f 123/6/1 122/6/1 121/6/1
f 124/6/1 122/6/1 123/6/1
f 127/6/1 126/6/1 125/6/1
f 128/6/1 126/6/1 127/6/1
f 133/1/1 130/1/1 129/1/1
f 134/1/1 130/1/1 133/1/1
f 135/1/1 132/1/1 131/1/1
f 136/1/1 132/1/1 135/1/1
f 137/1/2 138/1/2 141/1/2
f 141/1/2 138/1/2 142/1/2
f 139/1/2 140/1/2 143/1/2
f 143/1/2 140/1/2 144/1/2
f 145/4/2 146/4/2 149/4/2
f 149/4/2 146/4/2 150/4/2
f 147/4/2 148/4/2 151/4/2
f 151/4/2 148/4/2 152/4/2
f 153/7/2 154/7/2 155/7/2
f 155/7/2 154/7/2 156/7/2
f 156/7/2 154/7/2 157/7/2
f 157/7/2 154/7/2 158/7/2
f 156/7/2 157/7/2 160/7/2
f 160/7/2 157/7/2 161/7/2
f 159/8/2 160/8/2 163/8/2
f 161/8/2 162/8/2 163/8/2
f 160/8/2 161/8/2 163/8/2
f 163/8/2 162/8/2 164/8/2
f 165/1/2 166/1/2 167/1/2
f 167/1/2 166/1/2 168/1/2
f 169/7/2 170/7/2 171/7/2
f 171/7/2 170/7/2 172/7/2
f 172/7/2 170/7/2 173/7/2
f 173/7/2 170/7/2 174/7/2
f 172/7/2 173/7/2 176/7/2
f 176/7/2 173/7/2 177/7/2
f 175/8/2 176/8/2 179/8/2
f 177/8/2 178/8/2 179/8/2
f 176/8/2 177/8/2 179/8/2
f 179/8/2 178/8/2 180/8/2
f 179/7/2 180/7/2 181/7/2
f 181/7/2 180/7/2 182/7/2
f 182/7/2 180/7/2 183/7/2
f 183/7/2 180/7/2 184/7/2
f 182/1/2 183/1/2 186/1/2
f 186/1/2 183/1/2 187/1/2
f 185/4/2 186/4/2 189/4/2
f 187/4/2 188/4/2 189/4/2
f 186/4/2 187/4/2 189/4/2
f 189/4/2 188/4/2 190/4/2
f 189/3/2 190/3/2 191/3/2
f 191/3/2 190/3/2 192/3/2
f 192/3/2 190/3/2 193/3/2
f 193/3/2 190/3/2 194/3/2
f 191/2/2 192/2/2 195/2/2
f 195/2/2 192/2/2 196/2/2
f 193/2/2 194/2/2 197/2/2
f 197/2/2 194/2/2 198/2/2
f 199/6/2 200/6/2 201/6/2
f 201/6/2 200/6/2 202/6/2
f 203/6/2 204/6/2 205/6/2
f 205/6/2 204/6/2 206/6/2
f 205/5/2 206/5/2 209/5/2
f 209/5/2 206/5/2 210/5/2
f 207/6/2 208/6/2 211/6/2
f 211/6/2 208/6/2 212/6/2
f 213/4/2 214/4/2 217/4/2
f 217/4/2 214/4/2 218/4/2
f 215/4/2 216/4/2 219/4/2
f 219/4/2 216/4/2 220/4/2
f 221/6/2 222/6/2 225/6/2
f 225/6/2 222/6/2 226/6/2
f 223/6/2 224/6/2 227/6/2
f 227/6/2 224/6/2 228/6/2
f 228/6/2 224/6/2 229/6/2
f 230/6/2 231/6/2 232/6/2
f 232/6/2 231/6/2 233/6/2
f 234/9/2 235/9/2 236/9/2
f 236/9/2 235/9/2 237/9/2
f 238/1/2 239/1/2 240/1/2
f 240/1/2 239/1/2 241/1/2
f 244/6/3 243/6/3 242/6/3
f 246/6/3 244/6/3 242/6/3
f 246/6/3 245/6/3 244/6/3
f 247/6/3 245/6/3 246/6/3
f 250/5/3 249/5/3 248/5/3
f 252/5/3 250/5/3 248/5/3
f 252/5/3 251/5/3 250/5/3
f 253/5/3 251/5/3 252/5/3
f 254/5/3 251/5/3 253/5/3
f 256/1/3 253/1/3 252/1/3
f 257/5/3 254/5/3 253/5/3
f 257/1/3 253/1/3 256/1/3
f 258/7/3 255/7/3 254/7/3
f 258/5/3 254/5/3 257/5/3
f 259/10/3 257/10/3 256/10/3
f 259/1/3 256/1/3 252/1/3
f 259/10/3 258/10/3 257/10/3
f 260/7/3 255/7/3 258/7/3
f 260/10/3 258/10/3 259/10/3
f 261/1/3 259/1/3 252/1/3
f 261/1/3 260/1/3 259/1/3
f 262/7/3 255/7/3 260/7/3
f 262/1/3 260/1/3 261/1/3
f 263/1/3 261/1/3 252/1/3
f 263/10/3 262/10/3 261/10/3
f 264/10/3 262/10/3 263/10/3
f 265/7/3 255/7/3 262/7/3
f 265/10/3 262/10/3 264/10/3
f 266/7/3 255/7/3 265/7/3
f 268/1/3 264/1/3 263/1/3
f 268/1/3 263/1/3 252/1/3
f 269/1/3 264/1/3 268/1/3
f 270/5/3 265/5/3 264/5/3
f 270/1/3 264/1/3 269/1/3
f 271/9/3 267/9/3 266/9/3
f 271/5/3 265/5/3 270/5/3
f 271/9/3 266/9/3 265/9/3
f 272/6/3 270/6/3 269/6/3
f 272/6/3 271/6/3 270/6/3
f 273/6/3 271/6/3 272/6/3
f 274/9/3 267/9/3 271/9/3
f 274/6/3 271/6/3 273/6/3
f 275/9/3 267/9/3 274/9/3
f 276/9/3 267/9/3 275/9/3
f 279/1/3 278/1/3 277/1/3
f 280/1/3 278/1/3 279/1/3
f 283/4/3 282/4/3 281/4/3
f 284/4/3 282/4/3 283/4/3
f 296/6/3 286/6/3 285/6/3
f 298/7/3 288/7/3 287/7/3
f 299/7/3 288/7/3 298/7/3
f 300/8/3 290/8/3 289/8/3
f 301/7/3 291/7/3 290/7/3
f 301/8/3 290/8/3 300/8/3
f 302/4/3 293/4/3 292/4/3
f 302/3/3 294/3/3 293/3/3
f 303/2/3 295/2/3 294/2/3
f 303/3/3 294/3/3 302/3/3
f 304/2/3 295/2/3 303/2/3
f 305/6/3 296/6/3 285/6/3
f 306/5/3 297/5/3 296/5/3
f 306/6/3 296/6/3 305/6/3
f 307/5/3 297/5/3 306/5/3
f 308/5/3 306/5/3 305/5/3
f 309/6/3 307/6/3 306/6/3
f 309/5/3 306/5/3 308/5/3
f 313/7/3 291/7/3 301/7/3
f 314/4/3 302/4/3 292/4/3
f 314/2/3 303/2/3 302/2/3
f 315/3/3 304/3/3 303/3/3
f 315/2/3 303/2/3 314/2/3
f 316/3/3 304/3/3 315/3/3
f 317/7/3 311/7/3 310/7/3
f 318/7/3 311/7/3 317/7/3
f 319/8/3 313/8/3 312/8/3
f 320/7/3 291/7/3 313/7/3
f 320/8/3 313/8/3 319/8/3
f 321/7/3 291/7/3 320/7/3
f 322/4/3 314/4/3 292/4/3
f 323/3/3 315/3/3 314/3/3
f 323/4/3 314/4/3 322/4/3
f 324/2/3 316/2/3 315/2/3
f 324/3/3 315/3/3 323/3/3
f 325/2/3 316/2/3 324/2/3
f 326/6/3 309/6/3 308/6/3
f 327/6/3 307/6/3 309/6/3
f 327/6/3 309/6/3 326/6/3
f 328/6/3 307/6/3 327/6/3
f 331/4/3 330/4/3 329/4/3
f 332/4/3 330/4/3 331/4/3
f 335/1/3 334/1/3 333/1/3
f 336/1/3 334/1/3 335/1/3
f 339/4/3 338/4/3 337/4/3
f 340/4/3 338/4/3 339/4/3
f 347/2/3 342/2/3 341/2/3
f 348/2/3 342/2/3 347/2/3
f 349/7/3 344/7/3 343/7/3
f 350/7/3 344/7/3 349/7/3
f 355/1/3 352/1/3 351/1/3
f 356/1/3 352/1/3 355/1/3
f 357/7/3 354/7/3 353/7/3
f 358/7/3 354/7/3 357/7/3
f 359/1/3 346/1/3 345/1/3
f 360/1/3 346/1/3 359/1/3
f 363/2/3 362/2/3 361/2/3
f 364/2/3 362/2/3 363/2/3
f 367/4/3 366/4/3 365/4/3
f 368/4/3 366/4/3 367/4/3
f 371/5/3 370/5/3 369/5/3
f 372/5/3 370/5/3 371/5/3
f 375/5/3 374/5/3 373/5/3
f 376/5/3 374/5/3 375/5/3
f 379/6/3 378/6/3 377/6/3
f 380/6/3 378/6/3 379/6/3
f 381/5/4 382/5/4 383/5/4
f 383/5/4 382/5/4 384/5/4
f 385/5/4 386/5/4 387/5/4
f 387/5/4 386/5/4 388/5/4
f 389/6/4 390/6/4 391/6/4
f 391/6/4 390/6/4 392/6/4
f 393/4/4 394/4/4 395/4/4
f 395/4/4 394/4/4 396/4/4
f 397/2/4 398/2/4 403/2/4
f 403/2/4 398/2/4 404/2/4
f 399/7/4 400/7/4 405/7/4
f 405/7/4 400/7/4 406/7/4
f 407/7/4 408/7/4 409/7/4
f 409/7/4 408/7/4 410/7/4
f 401/1/4 402/1/4 411/1/4
f 411/1/4 402/1/4 412/1/4
f 413/2/4 414/2/4 415/2/4
f 415/2/4 414/2/4 416/2/4
f 417/4/4 418/4/4 419/4/4
f 419/4/4 418/4/4 420/4/4
f 421/1/4 422/1/4 423/1/4
f 423/1/4 422/1/4 424/1/4
f 425/5/4 426/5/4 429/5/4
f 429/5/4 426/5/4 430/5/4
f 427/4/4 428/4/4 431/4/4
f 431/4/4 428/4/4 432/4/4
f 433/7/4 434/7/4 442/7/4
f 442/7/4 434/7/4 443/7/4
f 435/8/4 436/8/4 444/8/4
f 436/7/4 437/7/4 445/7/4
f 444/8/4 436/8/4 445/8/4
f 438/4/4 439/4/4 446/4/4
f 439/3/4 440/3/4 446/3/4
f 440/2/4 441/2/4 447/2/4
f 446/3/4 440/3/4 447/3/4
f 447/2/4 441/2/4 448/2/4
f 445/7/4 437/7/4 453/7/4
f 438/4/4 446/4/4 454/4/4
f 446/2/4 447/2/4 454/2/4
f 447/3/4 448/3/4 455/3/4
f 454/2/4 447/2/4 455/2/4
f 448/1/4 449/1/4 456/1/4
f 455/3/4 448/3/4 456/3/4
f 456/1/4 449/1/4 457/1/4
f 450/7/4 451/7/4 458/7/4
f 458/7/4 451/7/4 459/7/4
f 452/8/4 453/8/4 460/8/4
f 453/7/4 437/7/4 461/7/4
f 460/8/4 453/8/4 461/8/4
f 461/7/4 437/7/4 462/7/4
f 438/4/4 454/4/4 463/4/4
f 454/3/4 455/3/4 464/3/4
f 463/4/4 454/4/4 464/4/4
f 455/2/4 456/2/4 465/2/4
f 464/3/4 455/3/4 465/3/4
f 465/2/4 456/2/4 466/2/4
f 467/4/4 468/4/4 469/4/4
f 469/4/4 468/4/4 470/4/4
f 471/1/4 472/1/4 473/1/4
f 473/1/4 472/1/4 474/1/4
f 476/6/4 477/6/4 478/6/4
f 475/7/4 476/7/4 480/7/4
f 476/6/4 478/6/4 480/6/4
f 478/5/4 479/5/4 481/5/4
f 480/6/4 478/6/4 481/6/4
f 481/5/4 479/5/4 482/5/4
f 475/7/4 480/7/4 483/7/4
f 480/5/4 481/5/4 483/5/4
f 481/6/4 482/6/4 484/6/4
f 483/5/4 481/5/4 484/5/4
f 475/7/4 483/7/4 485/7/4
f 483/6/4 484/6/4 486/6/4
f 485/7/4 483/7/4 486/7/4
f 484/6/4 482/6/4 487/6/4
f 486/6/4 484/6/4 487/6/4
f 487/6/4 482/6/4 488/6/4
f 485/9/4 486/9/4 489/9/4
f 486/9/4 487/9/4 489/9/4
f 489/9/4 487/9/4 490/9/4
f 490/9/4 487/9/4 491/9/4
f 491/9/4 487/9/4 492/9/4
f 493/5/4 494/5/4 495/5/4
f 495/5/4 494/5/4 496/5/4
f 496/5/4 494/5/4 497/5/4
f 497/5/4 494/5/4 500/5/4
f 500/5/4 494/5/4 501/5/4
f 498/6/4 499/6/4 502/6/4
f 499/6/4 500/6/4 502/6/4
f 500/6/4 501/6/4 502/6/4
f 502/6/4 501/6/4 503/6/4
f 498/6/4 502/6/4 504/6/4
f 504/6/4 502/6/4 505/6/4
f 506/6/4 507/6/4 509/6/4
f 507/5/4 508/5/4 510/5/4
f 509/6/4 507/6/4 510/6/4
f 510/5/4 508/5/4 511/5/4
f 516/7/5 513/7/5 512/7/5
f 517/7/5 513/7/5 516/7/5
f 518/7/5 515/7/5 514/7/5
f 519/7/5 515/7/5 518/7/5
f 524/8/5 521/8/5 520/8/5
f 525/8/5 521/8/5 524/8/5
f 526/8/5 523/8/5 522/8/5
f 527/8/5 523/8/5 526/8/5
f 532/8/5 529/8/5 528/8/5
f 533/8/5 529/8/5 532/8/5
f 534/8/5 531/8/5 530/8/5
f 535/8/5 531/8/5 534/8/5
f 538/7/5 537/7/5 536/7/5
f 539/7/5 537/7/5 538/7/5
f 542/4/5 541/4/5 540/4/5
f 543/4/5 541/4/5 542/4/5
f 546/4/5 545/4/5 544/4/5
f 547/4/5 545/4/5 546/4/5
f 556/1/5 549/1/5 548/1/5
f 557/4/5 551/4/5 550/4/5
f 558/4/5 551/4/5 557/4/5
f 561/4/5 553/4/5 552/4/5
f 562/4/5 553/4/5 561/4/5
f 563/1/5 555/1/5 554/1/5
f 564/1/5 556/1/5 548/1/5
f 564/4/5 557/4/5 556/4/5
f 564/4/5 558/4/5 557/4/5
f 565/4/5 558/4/5 564/4/5
f 566/2/5 559/2/5 558/2/5
f 566/4/5 558/4/5 565/4/5
f 567/2/5 559/2/5 566/2/5
f 568/2/5 561/2/5 560/2/5
f 569/4/5 562/4/5 561/4/5
f 569/2/5 561/2/5 568/2/5
f 569/4/5 563/4/5 562/4/5
f 570/4/5 563/4/5 569/4/5
f 571/1/5 555/1/5 563/1/5
f 571/4/5 563/4/5 570/4/5
f 572/1/5 564/1/5 548/1/5
f 573/1/5 564/1/5 572/1/5
f 574/4/5 566/4/5 565/4/5
f 575/4/5 566/4/5 574/4/5
f 576/4/5 570/4/5 569/4/5
f 577/4/5 570/4/5 576/4/5
f 578/1/5 555/1/5 571/1/5
f 579/1/5 555/1/5 578/1/5
f 584/6/5 581/6/5 580/6/5
f 585/5/5 583/5/5 582/5/5
f 586/1/5 584/1/5 583/1/5
f 586/5/5 583/5/5 585/5/5
f 587/1/5 584/1/5 586/1/5
f 588/1/5 584/1/5 587/1/5
f 589/6/5 581/6/5 584/6/5
f 589/1/5 584/1/5 588/1/5
f 590/5/5 585/5/5 582/5/5
f 591/6/5 586/6/5 585/6/5
f 591/5/5 585/5/5 590/5/5
f 591/6/5 587/6/5 586/6/5
f 592/6/5 587/6/5 591/6/5
f 593/6/5 587/6/5 592/6/5
f 594/6/5 589/6/5 588/6/5
f 595/6/5 589/6/5 594/6/5
f 596/6/5 581/6/5 589/6/5
f 596/6/5 589/6/5 595/6/5
f 597/1/5 593/1/5 592/1/5
f 597/5/5 594/5/5 593/5/5
f 598/1/5 595/1/5 594/1/5
f 598/5/5 594/5/5 597/5/5
f 599/5/5 592/5/5 591/5/5
f 600/5/5 592/5/5 599/5/5
f 601/1/5 597/1/5 592/1/5
f 601/5/5 592/5/5 600/5/5
f 601/1/5 598/1/5 597/1/5
f 602/5/5 596/5/5 595/5/5
f 602/1/5 598/1/5 601/1/5
f 602/1/5 595/1/5 598/1/5
f 603/6/5 581/6/5 596/6/5
f 603/5/5 596/5/5 602/5/5
f 604/6/5 581/6/5 603/6/5
f 605/6/5 602/6/5 601/6/5
f 605/6/5 603/6/5 602/6/5
f 605/6/5 601/6/5 600/6/5
f 606/6/5 603/6/5 605/6/5
f 610/9/5 608/9/5 607/9/5
f 611/9/5 610/9/5 609/9/5
f 612/9/5 608/9/5 610/9/5
f 612/9/5 610/9/5 611/9/5
f 613/9/5 608/9/5 612/9/5
f 614/9/5 608/9/5 613/9/5
f 615/7/6 616/7/6 619/7/6
f 619/7/6 616/7/6 620/7/6
f 617/7/6 618/7/6 621/7/6
f 621/7/6 618/7/6 622/7/6
f 623/7/6 624/7/6 627/7/6
f 627/7/6 624/7/6 628/7/6
f 625/7/6 626/7/6 629/7/6
f 629/7/6 626/7/6 630/7/6
f 631/7/6 632/7/6 633/7/6
f 633/7/6 632/7/6 634/7/6
f 635/7/6 636/7/6 637/7/6
f 637/7/6 636/7/6 638/7/6
f 639/1/6 640/1/6 651/1/6
f 641/4/6 642/4/6 652/4/6
f 652/4/6 642/4/6 653/4/6
f 643/2/6 644/2/6 654/2/6
f 644/3/6 645/3/6 655/3/6
f 654/2/6 644/2/6 655/2/6
f 645/2/6 646/2/6 656/2/6
f 655/3/6 645/3/6 656/3/6
f 656/2/6 646/2/6 657/2/6
f 647/4/6 648/4/6 658/4/6
f 658/4/6 648/4/6 659/4/6
f 649/1/6 650/1/6 660/1/6
f 639/1/6 651/1/6 661/1/6
f 652/4/6 653/4/6 661/4/6
f 651/4/6 652/4/6 661/4/6
f 661/4/6 653/4/6 662/4/6
f 653/2/6 654/2/6 663/2/6
f 662/4/6 653/4/6 663/4/6
f 654/2/6 655/2/6 663/2/6
f 663/2/6 655/2/6 664/2/6
f 656/2/6 657/2/6 665/2/6
f 657/2/6 658/2/6 665/2/6
f 658/4/6 659/4/6 666/4/6
f 665/2/6 658/2/6 666/2/6
f 659/4/6 660/4/6 666/4/6
f 666/4/6 660/4/6 667/4/6
f 660/1/6 650/1/6 668/1/6
f 667/4/6 660/4/6 668/4/6
f 639/1/6 661/1/6 669/1/6
f 669/1/6 661/1/6 670/1/6
f 662/4/6 663/4/6 671/4/6
f 671/4/6 663/4/6 672/4/6
f 664/2/6 655/2/6 673/2/6
f 673/2/6 655/2/6 674/2/6
f 656/2/6 665/2/6 675/2/6
f 675/2/6 665/2/6 676/2/6
f 666/4/6 667/4/6 677/4/6
f 677/4/6 667/4/6 678/4/6
f 668/1/6 650/1/6 679/1/6
f 679/1/6 650/1/6 680/1/6
f 681/6/6 682/6/6 683/6/6
f 683/6/6 682/6/6 684/6/6
f 685/5/6 686/5/6 687/5/6
f 685/5/6 687/5/6 688/5/6
f 688/5/6 687/5/6 689/5/6
f 690/6/6 691/6/6 694/6/6
f 692/5/6 693/5/6 695/5/6
f 695/5/6 693/5/6 696/5/6
f 694/6/6 691/6/6 698/6/6
f 699/5/6 700/5/6 701/5/6
f 701/5/6 700/5/6 702/5/6
f 697/6/6 698/6/6 703/6/6
f 698/6/6 691/6/6 704/6/6
f 703/6/6 698/6/6 704/6/6
f 704/6/6 691/6/6 707/6/6
f 707/6/6 691/6/6 708/6/6
f 705/5/6 706/5/6 709/5/6
f 709/5/6 706/5/6 710/5/6
f 711/5/6 712/5/6 713/5/6
f 713/5/6 712/5/6 714/5/6
f 713/6/6 714/6/6 715/6/6
f 715/6/6 714/6/6 716/6/6
f 715/5/6 716/5/6 717/5/6
f 715/5/6 717/5/6 721/5/6
f 717/5/6 718/5/6 721/5/6
f 718/5/6 719/5/6 721/5/6
f 719/6/6 720/6/6 722/6/6
f 721/5/6 719/5/6 722/5/6
f 722/6/6 720/6/6 723/6/6
f 724/7/6 725/7/6 726/7/6
f 726/7/6 725/7/6 727/7/6
f 727/7/6 725/7/6 728/7/6
f 728/7/6 725/7/6 729/7/6
f 730/9/6 731/9/6 734/9/6
f 732/6/6 733/6/6 735/6/6
f 732/6/6 735/6/6 737/6/6
f 735/6/6 736/6/6 737/6/6
f 737/6/6 736/6/6 738/6/6
f 732/6/6 737/6/6 739/6/6
f 739/6/6 737/6/6 740/6/6
f 734/9/6 731/9/6 741/9/6
f 741/9/6 731/9/6 742/9/6
f 743/5/6 744/5/6 746/5/6
f 744/6/6 745/6/6 747/6/6
f 746/5/6 744/5/6 747/5/6
f 747/6/6 745/6/6 749/6/6
f 748/5/6 749/5/6 750/5/6
f 749/6/6 745/6/6 751/6/6
f 750/5/6 749/5/6 751/5/6
f 751/6/6 745/6/6 752/6/6
